<svg width="1478" height="437" viewBox="0 0 1478 437" fill="none" xmlns="http://www.w3.org/2000/svg">
<g id="5b2581b5f792a39d0da7a9bd_10. Exchanges-Vector 1" clip-path="url(#clip0_12_37)">
<path id="Vector" d="M89 296.01H76.75L75.75 289.26H18L12 296.01V320.01H16V327.76L13.41 332.3C12.4875 333.914 12.0016 335.741 12 337.6V429.26H91.75V307.76L89 296.01Z" fill="white"/>
<g id="Clip path group">
<mask id="mask0_12_37" style="mask-type:luminance" maskUnits="userSpaceOnUse" x="12" y="289" width="80" height="141">
<g id="clip-path">
<path id="Vector_2" d="M89 296.01H76.75L75.75 289.26H18L12 296.01V320.01H16V327.76L13.41 332.3C12.4875 333.914 12.0016 335.741 12 337.6V429.26H91.75V307.76L89 296.01Z" fill="white"/>
</g>
</mask>
<g mask="url(#mask0_12_37)">
<g id="Group">
<path id="Vector_3" d="M12 296.01H36L75.75 289.26" stroke="#4B4B4B" stroke-width="2" stroke-linecap="round" stroke-linejoin="round"/>
<path id="Vector_4" d="M36 296.01L41 304.01L91.75 306.76" stroke="#4B4B4B" stroke-width="2" stroke-linecap="round" stroke-linejoin="round"/>
<path id="Vector_5" d="M41 304.01L76.75 296.01" stroke="#4B4B4B" stroke-width="2" stroke-linecap="round" stroke-linejoin="round"/>
<path id="Vector_6" d="M16 320.01H58.87" stroke="#4B4B4B" stroke-width="2" stroke-linecap="round" stroke-linejoin="round"/>
<path id="Vector_7" d="M16 327.76H46.62L62.04 333.48" stroke="#4B4B4B" stroke-width="2" stroke-linecap="round" stroke-linejoin="round"/>
<path id="Vector_8" d="M12 340.89C14.5964 342.837 17.7544 343.89 21 343.89H84.62C87.1534 343.89 89.6317 343.15 91.75 341.76" stroke="#4B4B4B" stroke-width="2" stroke-linecap="round" stroke-linejoin="round"/>
<path id="Vector_9" d="M72.12 336.14V343.89" stroke="#4B4B4B" stroke-width="2" stroke-linecap="round" stroke-linejoin="round"/>
<path id="Vector_10" d="M91.75 336.14H69.25C66.2981 336.14 63.4672 334.967 61.3799 332.88C59.2926 330.793 58.12 327.962 58.12 325.01C58.1226 322.06 59.2964 319.232 61.3834 317.146C63.4704 315.061 66.2999 313.89 69.25 313.89H83.9C84.9343 313.889 85.9588 314.091 86.9148 314.486C87.8708 314.881 88.7395 315.461 89.4714 316.192C90.2032 316.922 90.7838 317.79 91.18 318.746C91.5761 319.701 91.78 320.726 91.78 321.76L91.75 336.14Z" stroke="#4B4B4B" stroke-width="2" stroke-linecap="round" stroke-linejoin="round"/>
<path id="Vector_11" d="M76.18 317.76H70.68C66.9189 317.76 63.87 320.809 63.87 324.57C63.87 328.331 66.9189 331.38 70.68 331.38H76.18C79.9411 331.38 82.99 328.331 82.99 324.57C82.99 320.809 79.9411 317.76 76.18 317.76Z" stroke="#4B4B4B" stroke-width="2" stroke-linecap="round" stroke-linejoin="round"/>
<path id="Vector_12" d="M68.75 321.6H77.75" stroke="#4B4B4B" stroke-width="2" stroke-linecap="round" stroke-linejoin="round"/>
<path id="Vector_13" d="M68.75 327.43H74.94" stroke="#4B4B4B" stroke-width="2" stroke-linecap="round" stroke-linejoin="round"/>
<path id="Vector_14" d="M21 304.01H33" stroke="#4B4B4B" stroke-width="2" stroke-linecap="round" stroke-linejoin="round"/>
<path id="Vector_15" d="M83 359.07C85.778 359.07 88.03 356.818 88.03 354.04C88.03 351.262 85.778 349.01 83 349.01C80.222 349.01 77.97 351.262 77.97 354.04C77.97 356.818 80.222 359.07 83 359.07Z" stroke="#4B4B4B" stroke-width="2" stroke-linecap="round" stroke-linejoin="round"/>
<path id="Vector_16" d="M16 320.01H58.9C58.9 320.01 56.23 328.8 60.96 333.07C59.72 332.61 46.03 327.76 46.03 327.76H16.03L16 320.01Z" fill="#EAEAEA"/>
<path id="Vector_17" d="M8.27002 296.59H35.77L40.77 304.42L97.27 307.42L92.1 282.57H8.77002L8.27002 296.59Z" fill="#EAEAEA"/>
</g>
</g>
</g>
<path id="Vector_18" d="M89 296.01H76.75L75.75 289.26H18L12 296.01V320.01H16V327.76L13.41 332.3C12.4875 333.914 12.0016 335.741 12 337.6V429.26H91.75V307.76L89 296.01Z" stroke="#4B4B4B" stroke-width="2" stroke-linecap="round" stroke-linejoin="round"/>
<g id="Clip path group_2">
<mask id="mask1_12_37" style="mask-type:luminance" maskUnits="userSpaceOnUse" x="12" y="289" width="80" height="141">
<g id="clip-path-2">
<path id="Vector_19" d="M89 296.01H76.75L75.75 289.26H18L12 296.01V320.01H16V327.76L13.41 332.3C12.4875 333.914 12.0016 335.741 12 337.6V429.26H91.75V307.76L89 296.01Z" fill="white"/>
</g>
</mask>
<g mask="url(#mask1_12_37)">
<g id="Group_2">
<path id="Vector_20" d="M12 296.01H36L75.75 289.26" stroke="#4B4B4B" stroke-width="2" stroke-linecap="round" stroke-linejoin="round"/>
<path id="Vector_21" d="M36 296.01L41 304.01L91.75 306.76" stroke="#4B4B4B" stroke-width="2" stroke-linecap="round" stroke-linejoin="round"/>
<path id="Vector_22" d="M41 304.01L76.75 296.01" stroke="#4B4B4B" stroke-width="2" stroke-linecap="round" stroke-linejoin="round"/>
<path id="Vector_23" d="M16 320.01H58.87" stroke="#4B4B4B" stroke-width="2" stroke-linecap="round" stroke-linejoin="round"/>
<path id="Vector_24" d="M16 327.76H46.62L62.04 333.48" stroke="#4B4B4B" stroke-width="2" stroke-linecap="round" stroke-linejoin="round"/>
<path id="Vector_25" d="M12 340.89C14.5964 342.837 17.7544 343.89 21 343.89H84.62C87.1534 343.89 89.6317 343.15 91.75 341.76" stroke="#4B4B4B" stroke-width="2" stroke-linecap="round" stroke-linejoin="round"/>
<path id="Vector_26" d="M72.12 336.14V343.89" stroke="#4B4B4B" stroke-width="2" stroke-linecap="round" stroke-linejoin="round"/>
<path id="Vector_27" d="M91.75 336.14H69.25C66.2981 336.14 63.4672 334.967 61.3799 332.88C59.2926 330.793 58.12 327.962 58.12 325.01C58.1226 322.06 59.2964 319.232 61.3834 317.146C63.4704 315.061 66.2999 313.89 69.25 313.89H83.9C84.9343 313.889 85.9588 314.091 86.9148 314.486C87.8708 314.881 88.7395 315.461 89.4714 316.192C90.2032 316.922 90.7838 317.79 91.18 318.746C91.5761 319.701 91.78 320.726 91.78 321.76L91.75 336.14Z" stroke="#4B4B4B" stroke-width="2" stroke-linecap="round" stroke-linejoin="round"/>
<path id="Vector_28" d="M76.18 317.76H70.68C66.9189 317.76 63.87 320.809 63.87 324.57C63.87 328.331 66.9189 331.38 70.68 331.38H76.18C79.9411 331.38 82.99 328.331 82.99 324.57C82.99 320.809 79.9411 317.76 76.18 317.76Z" stroke="#4B4B4B" stroke-width="2" stroke-linecap="round" stroke-linejoin="round"/>
<path id="Vector_29" d="M68.75 321.6H77.75" stroke="#4B4B4B" stroke-width="2" stroke-linecap="round" stroke-linejoin="round"/>
<path id="Vector_30" d="M68.75 327.43H74.94" stroke="#4B4B4B" stroke-width="2" stroke-linecap="round" stroke-linejoin="round"/>
<path id="Vector_31" d="M21 304.01H33" stroke="#4B4B4B" stroke-width="2" stroke-linecap="round" stroke-linejoin="round"/>
<path id="Vector_32" d="M83 359.07C85.778 359.07 88.03 356.818 88.03 354.04C88.03 351.262 85.778 349.01 83 349.01C80.222 349.01 77.97 351.262 77.97 354.04C77.97 356.818 80.222 359.07 83 359.07Z" stroke="#4B4B4B" stroke-width="2" stroke-linecap="round" stroke-linejoin="round"/>
<path id="Vector_33" d="M16 320.01H58.9C58.9 320.01 56.23 328.8 60.96 333.07C59.72 332.61 46.03 327.76 46.03 327.76H16.03L16 320.01Z" stroke="#4B4B4B" stroke-width="2" stroke-linecap="round" stroke-linejoin="round"/>
<path id="Vector_34" d="M8.27002 296.59H35.77L40.77 304.42L97.27 307.42L92.1 282.57H8.77002L8.27002 296.59Z" stroke="#4B4B4B" stroke-width="2" stroke-linecap="round" stroke-linejoin="round"/>
</g>
</g>
</g>
<path id="Vector_35" d="M1301.78 246.93H1250.45V285.26H1301.78V246.93Z" stroke="#4B4B4B" stroke-width="2" stroke-linecap="round" stroke-linejoin="round"/>
<path id="Vector_36" d="M1301.78 301.43H1250.45V339.76H1301.78V301.43Z" stroke="#4B4B4B" stroke-width="2" stroke-linecap="round" stroke-linejoin="round"/>
<path id="Vector_37" d="M1237.55 286.61L1189.74 280.43L1195.75 242.24L1243.56 248.43L1237.55 286.61Z" stroke="#4B4B4B" stroke-width="2" stroke-linecap="round" stroke-linejoin="round"/>
<path id="Vector_38" d="M1239.45 301.43H1188.12V339.76H1239.45V301.43Z" stroke="#4B4B4B" stroke-width="2" stroke-linecap="round" stroke-linejoin="round"/>
<path id="Vector_39" d="M1314.86 286.61L1362.67 280.43L1356.67 242.24L1308.86 248.43L1314.86 286.61Z" stroke="#4B4B4B" stroke-width="2" stroke-linecap="round" stroke-linejoin="round"/>
<path id="Vector_40" d="M1364.29 301.43H1312.96V339.76H1364.29V301.43Z" stroke="#4B4B4B" stroke-width="2" stroke-linecap="round" stroke-linejoin="round"/>
<path id="Vector_41" d="M1216.65 301.43H1210.73V283.14L1216.65 284.14V301.43Z" fill="white" stroke="#4B4B4B" stroke-width="1.25" stroke-linecap="round" stroke-linejoin="round"/>
<path id="Vector_42" d="M1335.67 301.43H1341.59V283.14L1335.67 284.14V301.43Z" fill="white" stroke="#4B4B4B" stroke-width="1.25" stroke-linecap="round" stroke-linejoin="round"/>
<path id="Vector_43" d="M1278.7 285.26H1273.2V301.43H1278.7V285.26Z" fill="white" stroke="#4B4B4B" stroke-width="1.25" stroke-linecap="round" stroke-linejoin="round"/>
<path id="Vector_44" d="M1216.65 339.76H1210.73V351.26H1216.65V339.76Z" fill="white" stroke="#4B4B4B" stroke-width="1.25" stroke-linecap="round" stroke-linejoin="round"/>
<path id="Vector_45" d="M1278.91 339.76H1272.99V351.26H1278.91V339.76Z" fill="white" stroke="#4B4B4B" stroke-width="1.25" stroke-linecap="round" stroke-linejoin="round"/>
<path id="Vector_46" d="M1341.59 339.76H1335.67V351.26H1341.59V339.76Z" fill="white" stroke="#4B4B4B" stroke-width="1.25" stroke-linecap="round" stroke-linejoin="round"/>
<path id="Vector_47" d="M1220.67 351.26H1206.71V353.26H1220.67V351.26Z" fill="white" stroke="#4B4B4B" stroke-width="1.25" stroke-linecap="round" stroke-linejoin="round"/>
<path id="Vector_48" d="M1345.61 351.26H1331.65V353.26H1345.61V351.26Z" fill="white" stroke="#4B4B4B" stroke-width="1.25" stroke-linecap="round" stroke-linejoin="round"/>
<path id="Vector_49" d="M1309.35 350.18H1253.7V352.76H1309.35V350.18Z" fill="white" stroke="#4B4B4B" stroke-width="1.25" stroke-linecap="round" stroke-linejoin="round"/>
<path id="Vector_50" d="M1256.63 251.08H1293.09" stroke="#4B4B4B" stroke-width="1.25" stroke-linecap="round" stroke-linejoin="round"/>
<path id="Vector_51" d="M1256.62 255.46H1269.37" stroke="#4B4B4B" stroke-width="1.25" stroke-linecap="round" stroke-linejoin="round"/>
<path id="Vector_52" d="M1271.56 255.26H1276.74" stroke="#FF0086" stroke-width="1.25" stroke-linecap="round" stroke-linejoin="round"/>
<path id="Vector_53" d="M1279.33 255.46H1282.32" stroke="#4B4B4B" stroke-width="1.25" stroke-linecap="round" stroke-linejoin="round"/>
<path id="Vector_54" d="M1285.11 255.26H1288.09" stroke="#E9E9E9" stroke-width="1.25" stroke-linecap="round" stroke-linejoin="round"/>
<path id="Vector_55" d="M1265.38 259.84H1282.32" stroke="#4B4B4B" stroke-width="1.25" stroke-linecap="round" stroke-linejoin="round"/>
<path id="Vector_56" d="M1284.51 259.64H1288.69" stroke="#FF0086" stroke-width="1.25" stroke-linecap="round" stroke-linejoin="round"/>
<path id="Vector_57" d="M1291.06 259.64H1296.32" stroke="#4B4B4B" stroke-width="1.25" stroke-linecap="round" stroke-linejoin="round"/>
<path id="Vector_58" d="M1275.34 264.23H1277.93" stroke="#4B4B4B" stroke-width="1.25" stroke-linecap="round" stroke-linejoin="round"/>
<path id="Vector_59" d="M1281.12 264.03H1283.71" stroke="#FF0086" stroke-width="1.25" stroke-linecap="round" stroke-linejoin="round"/>
<path id="Vector_60" d="M1285.9 264.03H1293.27" stroke="#FF0086" stroke-width="1.25" stroke-linecap="round" stroke-linejoin="round"/>
<path id="Vector_61" d="M1275.54 268.81H1289.54" stroke="#4B4B4B" stroke-width="1.25" stroke-linecap="round" stroke-linejoin="round"/>
<path id="Vector_62" d="M1291.64 268.81H1293.96" stroke="#4B4B4B" stroke-width="1.25" stroke-linecap="round" stroke-linejoin="round"/>
<path id="Vector_63" d="M1267.97 273.19H1286.7" stroke="#4B4B4B" stroke-width="1.25" stroke-linecap="round" stroke-linejoin="round"/>
<path id="Vector_64" d="M1289.87 272.99H1292.26" stroke="#FF0086" stroke-width="1.25" stroke-linecap="round" stroke-linejoin="round"/>
<path id="Vector_65" d="M1261 277.37H1271.36" stroke="#FF0086" stroke-width="1.25" stroke-linecap="round" stroke-linejoin="round"/>
<path id="Vector_66" d="M1273.15 277.57H1280.32" stroke="#4B4B4B" stroke-width="1.25" stroke-linecap="round" stroke-linejoin="round"/>
<path id="Vector_67" d="M1282.51 277.57H1294.07" stroke="#4B4B4B" stroke-width="1.25" stroke-linecap="round" stroke-linejoin="round"/>
<path id="Vector_68" d="M1256.62 281.76H1283.11" stroke="#FF0086" stroke-width="1.25" stroke-linecap="round" stroke-linejoin="round"/>
<path id="Vector_69" d="M1357.47 335.94L1321.02 335.93" stroke="#4B4B4B" stroke-width="1.25" stroke-linecap="round" stroke-linejoin="round"/>
<path id="Vector_70" d="M1357.49 331.55H1344.74" stroke="#4B4B4B" stroke-width="1.25" stroke-linecap="round" stroke-linejoin="round"/>
<path id="Vector_71" d="M1342.55 331.75H1337.37" stroke="#FF0086" stroke-width="1.25" stroke-linecap="round" stroke-linejoin="round"/>
<path id="Vector_72" d="M1334.78 331.55H1331.79" stroke="#4B4B4B" stroke-width="1.25" stroke-linecap="round" stroke-linejoin="round"/>
<path id="Vector_73" d="M1329 331.75H1326.01" stroke="#E9E9E9" stroke-width="1.25" stroke-linecap="round" stroke-linejoin="round"/>
<path id="Vector_74" d="M1348.72 327.17H1331.79" stroke="#4B4B4B" stroke-width="1.25" stroke-linecap="round" stroke-linejoin="round"/>
<path id="Vector_75" d="M1329.6 327.37H1325.41" stroke="#FF0086" stroke-width="1.25" stroke-linecap="round" stroke-linejoin="round"/>
<path id="Vector_76" d="M1323.04 327.37H1317.78" stroke="#4B4B4B" stroke-width="1.25" stroke-linecap="round" stroke-linejoin="round"/>
<path id="Vector_77" d="M1338.76 322.79H1336.17" stroke="#4B4B4B" stroke-width="1.25" stroke-linecap="round" stroke-linejoin="round"/>
<path id="Vector_78" d="M1332.98 322.99H1330.39" stroke="#FF0086" stroke-width="1.25" stroke-linecap="round" stroke-linejoin="round"/>
<path id="Vector_79" d="M1328.2 322.99H1320.83" stroke="#FF0086" stroke-width="1.25" stroke-linecap="round" stroke-linejoin="round"/>
<path id="Vector_80" d="M1338.56 318.2H1324.57" stroke="#4B4B4B" stroke-width="1.25" stroke-linecap="round" stroke-linejoin="round"/>
<path id="Vector_81" d="M1322.47 318.2H1320.14" stroke="#4B4B4B" stroke-width="1.25" stroke-linecap="round" stroke-linejoin="round"/>
<path id="Vector_82" d="M1346.13 313.82H1327.41" stroke="#4B4B4B" stroke-width="1.25" stroke-linecap="round" stroke-linejoin="round"/>
<path id="Vector_83" d="M1324.24 314.02H1321.85" stroke="#FF0086" stroke-width="1.25" stroke-linecap="round" stroke-linejoin="round"/>
<path id="Vector_84" d="M1353.11 309.64H1342.75" stroke="#FF0086" stroke-width="1.25" stroke-linecap="round" stroke-linejoin="round"/>
<path id="Vector_85" d="M1340.95 309.44H1333.78" stroke="#4B4B4B" stroke-width="1.25" stroke-linecap="round" stroke-linejoin="round"/>
<path id="Vector_86" d="M1331.59 309.44H1320.03" stroke="#4B4B4B" stroke-width="1.25" stroke-linecap="round" stroke-linejoin="round"/>
<path id="Vector_87" d="M1357.49 305.26L1330.99 305.25" stroke="#FF0086" stroke-width="1.25" stroke-linecap="round" stroke-linejoin="round"/>
<path id="Vector_88" d="M1193.21 335.67H1196.47" stroke="#FF0086" stroke-width="2" stroke-linecap="round" stroke-linejoin="round"/>
<path id="Vector_89" d="M1193.21 332.5H1196.47" stroke="#FF0086" stroke-width="2" stroke-linecap="round" stroke-linejoin="round"/>
<path id="Vector_90" d="M1193.21 329.34H1196.47" stroke="#FF0086" stroke-width="2" stroke-linecap="round" stroke-linejoin="round"/>
<path id="Vector_91" d="M1193.21 326.17H1196.47" stroke="#FF0086" stroke-width="2" stroke-linecap="round" stroke-linejoin="round"/>
<path id="Vector_92" d="M1193.21 323H1196.47" stroke="#FF0086" stroke-width="2" stroke-linecap="round" stroke-linejoin="round"/>
<path id="Vector_93" d="M1193.21 319.84H1196.47" stroke="#FF0086" stroke-width="2" stroke-linecap="round" stroke-linejoin="round"/>
<path id="Vector_94" d="M1199.51 335.67H1202.77" stroke="#FF0086" stroke-width="2" stroke-linecap="round" stroke-linejoin="round"/>
<path id="Vector_95" d="M1199.51 332.5H1202.77" stroke="#FF0086" stroke-width="2" stroke-linecap="round" stroke-linejoin="round"/>
<path id="Vector_96" d="M1199.51 329.34H1202.77" stroke="#FF0086" stroke-width="2" stroke-linecap="round" stroke-linejoin="round"/>
<path id="Vector_97" d="M1199.51 326.17H1202.77" stroke="#FF0086" stroke-width="2" stroke-linecap="round" stroke-linejoin="round"/>
<path id="Vector_98" d="M1199.51 323H1202.77" stroke="#FF0086" stroke-width="2" stroke-linecap="round" stroke-linejoin="round"/>
<path id="Vector_99" d="M1199.51 319.84H1202.77" stroke="#FF0086" stroke-width="2" stroke-linecap="round" stroke-linejoin="round"/>
<path id="Vector_100" d="M1199.51 316.67H1202.77" stroke="#FF0086" stroke-width="2" stroke-linecap="round" stroke-linejoin="round"/>
<path id="Vector_101" d="M1199.51 313.5H1202.77" stroke="#FF0086" stroke-width="2" stroke-linecap="round" stroke-linejoin="round"/>
<path id="Vector_102" d="M1199.51 310.34H1202.77" stroke="#FF0086" stroke-width="2" stroke-linecap="round" stroke-linejoin="round"/>
<path id="Vector_103" d="M1205.81 335.67H1209.07" stroke="#FF0086" stroke-width="2" stroke-linecap="round" stroke-linejoin="round"/>
<path id="Vector_104" d="M1205.81 332.5H1209.07" stroke="#FF0086" stroke-width="2" stroke-linecap="round" stroke-linejoin="round"/>
<path id="Vector_105" d="M1205.81 329.34H1209.07" stroke="#FF0086" stroke-width="2" stroke-linecap="round" stroke-linejoin="round"/>
<path id="Vector_106" d="M1205.81 326.17H1209.07" stroke="#FF0086" stroke-width="2" stroke-linecap="round" stroke-linejoin="round"/>
<path id="Vector_107" d="M1205.81 323H1209.07" stroke="#FF0086" stroke-width="2" stroke-linecap="round" stroke-linejoin="round"/>
<path id="Vector_108" d="M1212.11 335.67H1215.37" stroke="#FF0086" stroke-width="2" stroke-linecap="round" stroke-linejoin="round"/>
<path id="Vector_109" d="M1212.11 332.5H1215.37" stroke="#FF0086" stroke-width="2" stroke-linecap="round" stroke-linejoin="round"/>
<path id="Vector_110" d="M1212.11 329.34H1215.37" stroke="#FF0086" stroke-width="2" stroke-linecap="round" stroke-linejoin="round"/>
<path id="Vector_111" d="M1212.11 326.17H1215.37" stroke="#FF0086" stroke-width="2" stroke-linecap="round" stroke-linejoin="round"/>
<path id="Vector_112" d="M1212.11 323H1215.37" stroke="#FF0086" stroke-width="2" stroke-linecap="round" stroke-linejoin="round"/>
<path id="Vector_113" d="M1212.11 319.84H1215.37" stroke="#FF0086" stroke-width="2" stroke-linecap="round" stroke-linejoin="round"/>
<path id="Vector_114" d="M1212.11 316.67H1215.37" stroke="#FF0086" stroke-width="2" stroke-linecap="round" stroke-linejoin="round"/>
<path id="Vector_115" d="M1218.41 335.67H1221.67" stroke="#FF0086" stroke-width="2" stroke-linecap="round" stroke-linejoin="round"/>
<path id="Vector_116" d="M1218.41 332.5H1221.67" stroke="#FF0086" stroke-width="2" stroke-linecap="round" stroke-linejoin="round"/>
<path id="Vector_117" d="M1218.41 329.34H1221.67" stroke="#FF0086" stroke-width="2" stroke-linecap="round" stroke-linejoin="round"/>
<path id="Vector_118" d="M1218.41 326.17H1221.67" stroke="#FF0086" stroke-width="2" stroke-linecap="round" stroke-linejoin="round"/>
<path id="Vector_119" d="M1218.41 323H1221.67" stroke="#FF0086" stroke-width="2" stroke-linecap="round" stroke-linejoin="round"/>
<path id="Vector_120" d="M1218.41 319.84H1221.67" stroke="#FF0086" stroke-width="2" stroke-linecap="round" stroke-linejoin="round"/>
<path id="Vector_121" d="M1218.41 316.67H1221.67" stroke="#FF0086" stroke-width="2" stroke-linecap="round" stroke-linejoin="round"/>
<path id="Vector_122" d="M1218.41 313.5H1221.67" stroke="#FF0086" stroke-width="2" stroke-linecap="round" stroke-linejoin="round"/>
<path id="Vector_123" d="M1218.41 310.34H1221.67" stroke="#FF0086" stroke-width="2" stroke-linecap="round" stroke-linejoin="round"/>
<path id="Vector_124" d="M1218.41 307.17H1221.67" stroke="#FF0086" stroke-width="2" stroke-linecap="round" stroke-linejoin="round"/>
<path id="Vector_125" d="M1224.71 335.67H1227.97" stroke="#FF0086" stroke-width="2" stroke-linecap="round" stroke-linejoin="round"/>
<path id="Vector_126" d="M1224.71 332.5H1227.97" stroke="#FF0086" stroke-width="2" stroke-linecap="round" stroke-linejoin="round"/>
<path id="Vector_127" d="M1224.71 329.34H1227.97" stroke="#FF0086" stroke-width="2" stroke-linecap="round" stroke-linejoin="round"/>
<path id="Vector_128" d="M1224.71 326.17H1227.97" stroke="#FF0086" stroke-width="2" stroke-linecap="round" stroke-linejoin="round"/>
<path id="Vector_129" d="M1224.71 323H1227.97" stroke="#FF0086" stroke-width="2" stroke-linecap="round" stroke-linejoin="round"/>
<path id="Vector_130" d="M1224.71 319.84H1227.97" stroke="#FF0086" stroke-width="2" stroke-linecap="round" stroke-linejoin="round"/>
<path id="Vector_131" d="M1231.01 335.67H1234.28" stroke="#FF0086" stroke-width="2" stroke-linecap="round" stroke-linejoin="round"/>
<path id="Vector_132" d="M1231.01 332.5H1234.28" stroke="#FF0086" stroke-width="2" stroke-linecap="round" stroke-linejoin="round"/>
<path id="Vector_133" d="M1231.01 329.34H1234.28" stroke="#FF0086" stroke-width="2" stroke-linecap="round" stroke-linejoin="round"/>
<path id="Vector_134" d="M1256.55 320.49V331.78" stroke="#FF0086" stroke-width="2" stroke-linecap="round" stroke-linejoin="round"/>
<path id="Vector_135" d="M1260.69 309.93V321.22" stroke="#FF0086" stroke-width="2" stroke-linecap="round" stroke-linejoin="round"/>
<path id="Vector_136" d="M1264.83 307.17V318.46" stroke="#FF0086" stroke-width="2" stroke-linecap="round" stroke-linejoin="round"/>
<path id="Vector_137" d="M1268.96 310.74V322.04" stroke="#FF0086" stroke-width="2" stroke-linecap="round" stroke-linejoin="round"/>
<path id="Vector_138" d="M1273.1 312.61V323.9" stroke="#FF0086" stroke-width="2" stroke-linecap="round" stroke-linejoin="round"/>
<path id="Vector_139" d="M1277.24 320.49V331.78" stroke="#FF0086" stroke-width="2" stroke-linecap="round" stroke-linejoin="round"/>
<path id="Vector_140" d="M1256.55 335.89V336.25" stroke="#FF0086" stroke-width="2" stroke-linecap="round" stroke-linejoin="round"/>
<path id="Vector_141" d="M1260.69 335.89V336.25" stroke="#FF0086" stroke-width="2" stroke-linecap="round" stroke-linejoin="round"/>
<path id="Vector_142" d="M1264.83 335.89V336.25" stroke="#FF0086" stroke-width="2" stroke-linecap="round" stroke-linejoin="round"/>
<path id="Vector_143" d="M1268.96 335.89V336.25" stroke="#FF0086" stroke-width="2" stroke-linecap="round" stroke-linejoin="round"/>
<path id="Vector_144" d="M1273.1 335.89V336.25" stroke="#FF0086" stroke-width="2" stroke-linecap="round" stroke-linejoin="round"/>
<path id="Vector_145" d="M1277.23 335.89V336.25" stroke="#FF0086" stroke-width="2" stroke-linecap="round" stroke-linejoin="round"/>
<path id="Vector_146" d="M1281.3 305.89V317.18" stroke="#FF0086" stroke-width="2" stroke-linecap="round" stroke-linejoin="round"/>
<path id="Vector_147" d="M1285.43 313.68V324.97" stroke="#FF0086" stroke-width="2" stroke-linecap="round" stroke-linejoin="round"/>
<path id="Vector_148" d="M1289.57 317.36V328.65" stroke="#FF0086" stroke-width="2" stroke-linecap="round" stroke-linejoin="round"/>
<path id="Vector_149" d="M1293.7 310.74V322.04" stroke="#FF0086" stroke-width="2" stroke-linecap="round" stroke-linejoin="round"/>
<path id="Vector_150" d="M1281.3 335.89V336.25" stroke="#FF0086" stroke-width="2" stroke-linecap="round" stroke-linejoin="round"/>
<path id="Vector_151" d="M1285.43 335.89V336.25" stroke="#FF0086" stroke-width="2" stroke-linecap="round" stroke-linejoin="round"/>
<path id="Vector_152" d="M1289.57 335.89V336.25" stroke="#FF0086" stroke-width="2" stroke-linecap="round" stroke-linejoin="round"/>
<path id="Vector_153" d="M1293.7 335.89V336.25" stroke="#FF0086" stroke-width="2" stroke-linecap="round" stroke-linejoin="round"/>
<path id="Vector_154" d="M1199.17 258.87L1198.54 263.37" stroke="#FF0086" stroke-width="2" stroke-linecap="round" stroke-linejoin="round"/>
<path id="Vector_155" d="M1202.75 261.85L1202.05 266.9" stroke="#FF0086" stroke-width="2" stroke-linecap="round" stroke-linejoin="round"/>
<path id="Vector_156" d="M1207.48 256.6L1206.55 263.33" stroke="#FF0086" stroke-width="2" stroke-linecap="round" stroke-linejoin="round"/>
<path id="Vector_157" d="M1210.16 266.14L1209.64 269.9" stroke="#FF0086" stroke-width="2" stroke-linecap="round" stroke-linejoin="round"/>
<path id="Vector_158" d="M1215.12 259.23L1214.11 266.49" stroke="#FF0086" stroke-width="2" stroke-linecap="round" stroke-linejoin="round"/>
<path id="Vector_159" d="M1218.37 264.63L1217.68 269.59" stroke="#FF0086" stroke-width="2" stroke-linecap="round" stroke-linejoin="round"/>
<path id="Vector_160" d="M1222.24 265.55L1221.75 269.1" stroke="#FF0086" stroke-width="2" stroke-linecap="round" stroke-linejoin="round"/>
<path id="Vector_161" d="M1227.1 259.38L1226.34 264.88" stroke="#FF0086" stroke-width="2" stroke-linecap="round" stroke-linejoin="round"/>
<path id="Vector_162" d="M1230.55 263.33L1229.57 270.43" stroke="#FF0086" stroke-width="2" stroke-linecap="round" stroke-linejoin="round"/>
<path id="Vector_163" d="M1234.27 265.37L1233.27 272.58" stroke="#FF0086" stroke-width="2" stroke-linecap="round" stroke-linejoin="round"/>
<path id="Vector_164" d="M1315.83 279.09L1320.07 267.32L1327.27 271.33L1328.9 266.88L1340.23 272.04L1345.61 256.09L1349.23 259.64L1354.67 251.08" stroke="#FF0086" stroke-width="2" stroke-linecap="round" stroke-linejoin="round"/>
<path id="Vector_165" d="M178.76 246.93H127.43V285.26H178.76V246.93Z" fill="white" stroke="#4B4B4B" stroke-width="2" stroke-linecap="round" stroke-linejoin="round"/>
<path id="Vector_166" d="M178.76 301.43H127.43V339.76H178.76V301.43Z" fill="white" stroke="#4B4B4B" stroke-width="2" stroke-linecap="round" stroke-linejoin="round"/>
<path id="Vector_167" d="M114.53 286.61L66.71 280.43L72.72 242.24L120.53 248.43L114.53 286.61Z" fill="white" stroke="#4B4B4B" stroke-width="2" stroke-linecap="round" stroke-linejoin="round"/>
<path id="Vector_168" d="M116.42 301.43H65.09V339.76H116.42V301.43Z" fill="white" stroke="#4B4B4B" stroke-width="2" stroke-linecap="round" stroke-linejoin="round"/>
<path id="Vector_169" d="M191.84 286.61L239.65 280.43L233.64 242.24L185.83 248.43L191.84 286.61Z" fill="white" stroke="#4B4B4B" stroke-width="2" stroke-linecap="round" stroke-linejoin="round"/>
<path id="Vector_170" d="M241.26 301.43H189.93V339.76H241.26V301.43Z" fill="white" stroke="#4B4B4B" stroke-width="2" stroke-linecap="round" stroke-linejoin="round"/>
<path id="Vector_171" d="M93.62 301.43H87.7V283.14L93.62 284.14V301.43Z" fill="white" stroke="#4B4B4B" stroke-width="1.25" stroke-linecap="round" stroke-linejoin="round"/>
<path id="Vector_172" d="M212.64 301.43H218.56V283.14L212.64 284.14V301.43Z" fill="white" stroke="#4B4B4B" stroke-width="1.25" stroke-linecap="round" stroke-linejoin="round"/>
<path id="Vector_173" d="M155.68 285.26H150.18V301.43H155.68V285.26Z" fill="white" stroke="#4B4B4B" stroke-width="1.25" stroke-linecap="round" stroke-linejoin="round"/>
<path id="Vector_174" d="M93.62 339.76H87.7V351.26H93.62V339.76Z" fill="white" stroke="#4B4B4B" stroke-width="1.25" stroke-linecap="round" stroke-linejoin="round"/>
<path id="Vector_175" d="M155.89 339.76H149.97V351.26H155.89V339.76Z" fill="white" stroke="#4B4B4B" stroke-width="1.25" stroke-linecap="round" stroke-linejoin="round"/>
<path id="Vector_176" d="M218.56 339.76H212.64V351.26H218.56V339.76Z" fill="white" stroke="#4B4B4B" stroke-width="1.25" stroke-linecap="round" stroke-linejoin="round"/>
<path id="Vector_177" d="M97.6401 351.26H83.6801V353.26H97.6401V351.26Z" fill="white" stroke="#4B4B4B" stroke-width="1.25" stroke-linecap="round" stroke-linejoin="round"/>
<path id="Vector_178" d="M222.58 351.26H208.62V353.26H222.58V351.26Z" fill="white" stroke="#4B4B4B" stroke-width="1.25" stroke-linecap="round" stroke-linejoin="round"/>
<path id="Vector_179" d="M186.33 350.18H130.68V352.76H186.33V350.18Z" fill="white" stroke="#4B4B4B" stroke-width="1.25" stroke-linecap="round" stroke-linejoin="round"/>
<path id="Vector_180" d="M67.32 276.6L85.93 264.43L90.76 272.43L102.43 256.68L106.93 266.64L117.37 268.5" stroke="#FF0086" stroke-width="1.25" stroke-linecap="round" stroke-linejoin="round"/>
<path id="Vector_181" d="M127.43 270.18L140.05 273.55L145.05 262.8L155.68 259.93L163.43 266.74L171.8 267.43L178.76 264.43" stroke="#FF0086" stroke-width="1.25" stroke-linecap="round" stroke-linejoin="round"/>
<path id="Vector_182" d="M134.68 267.55V276.6" stroke="#FF0086" stroke-width="1.25" stroke-linecap="round" stroke-linejoin="round"/>
<path id="Vector_183" d="M143.46 277.43V261.18" stroke="#FF0086" stroke-width="1.25" stroke-linecap="round" stroke-linejoin="round"/>
<path id="Vector_184" d="M152.24 268.85V252.6" stroke="#FF0086" stroke-width="1.25" stroke-linecap="round" stroke-linejoin="round"/>
<path id="Vector_185" d="M161.02 274.87V258.62" stroke="#FF0086" stroke-width="1.25" stroke-linecap="round" stroke-linejoin="round"/>
<path id="Vector_186" d="M169.8 278.62V262.37" stroke="#FF0086" stroke-width="1.25" stroke-linecap="round" stroke-linejoin="round"/>
<path id="Vector_187" d="M229.68 263.68C229.682 264.961 229.524 266.238 229.21 267.48C228.506 270.307 227.032 272.883 224.952 274.922C222.871 276.961 220.266 278.383 217.426 279.03C214.586 279.677 211.622 279.524 208.864 278.588C206.105 277.651 203.661 275.968 201.801 273.726C199.942 271.483 198.742 268.769 198.333 265.885C197.924 263 198.323 260.059 199.485 257.388C200.648 254.717 202.528 252.421 204.918 250.755C207.307 249.089 210.112 248.118 213.02 247.95H213.93C216.448 247.948 218.929 248.552 221.166 249.709C223.402 250.866 225.327 252.543 226.78 254.6L226.99 254.89C228.744 257.486 229.68 260.547 229.68 263.68Z" stroke="#FF0086" stroke-width="1.25" stroke-linecap="round" stroke-linejoin="round"/>
<path id="Vector_188" d="M226.78 254.58L213.9 264.42L212.99 247.94H213.9C216.422 247.932 218.909 248.532 221.151 249.687C223.392 250.843 225.323 252.521 226.78 254.58Z" fill="#FF0076" stroke="#FF0086" stroke-width="1.25" stroke-linecap="round" stroke-linejoin="round"/>
<path id="Vector_189" d="M213.9 264.42V279.42C211.441 279.422 209.016 278.848 206.819 277.744C204.622 276.639 202.715 275.035 201.25 273.06L213.9 264.42Z" stroke="#FF0086" stroke-width="1.25" stroke-linecap="round" stroke-linejoin="round"/>
<path id="Vector_190" d="M229.68 263.68C229.682 264.961 229.524 266.238 229.21 267.48L213.9 264.42L226.78 254.61L226.99 254.9C228.742 257.493 229.678 260.551 229.68 263.68Z" stroke="#FF0086" stroke-width="1.25" stroke-linecap="round" stroke-linejoin="round"/>
<path id="Vector_191" d="M189.93 327.3L191.93 330.05L198.05 315.55L203.18 325.43L204.3 322.8L206.93 327.8L209.93 307.68L212.64 330.68L217.18 320.62L218.56 323.43L221.18 314.3L225.8 326.55L233.55 307.93L237.18 315.93L238.65 313.68L241.27 318.93" stroke="#FF0086" stroke-width="1.25" stroke-linecap="round" stroke-linejoin="round"/>
<path id="Vector_192" d="M134.44 305.24H170.9" stroke="#4B4B4B" stroke-width="1.25" stroke-linecap="round" stroke-linejoin="round"/>
<path id="Vector_193" d="M134.42 309.63H147.17" stroke="#4B4B4B" stroke-width="1.25" stroke-linecap="round" stroke-linejoin="round"/>
<path id="Vector_194" d="M149.36 309.43H154.54" stroke="#FF0086" stroke-width="1.25" stroke-linecap="round" stroke-linejoin="round"/>
<path id="Vector_195" d="M157.13 309.63H160.12" stroke="#4B4B4B" stroke-width="1.25" stroke-linecap="round" stroke-linejoin="round"/>
<path id="Vector_196" d="M162.91 309.43H165.9" stroke="#E9E9E9" stroke-width="1.25" stroke-linecap="round" stroke-linejoin="round"/>
<path id="Vector_197" d="M143.19 314.01H160.12" stroke="#4B4B4B" stroke-width="1.25" stroke-linecap="round" stroke-linejoin="round"/>
<path id="Vector_198" d="M162.31 313.81H166.5" stroke="#FF0086" stroke-width="1.25" stroke-linecap="round" stroke-linejoin="round"/>
<path id="Vector_199" d="M168.87 313.81H174.13" stroke="#4B4B4B" stroke-width="1.25" stroke-linecap="round" stroke-linejoin="round"/>
<path id="Vector_200" d="M153.15 318.39H155.74" stroke="#4B4B4B" stroke-width="1.25" stroke-linecap="round" stroke-linejoin="round"/>
<path id="Vector_201" d="M158.93 318.19H161.52" stroke="#FF0086" stroke-width="1.25" stroke-linecap="round" stroke-linejoin="round"/>
<path id="Vector_202" d="M163.71 318.19H171.08" stroke="#FF0086" stroke-width="1.25" stroke-linecap="round" stroke-linejoin="round"/>
<path id="Vector_203" d="M153.35 322.97L167.34 322.98" stroke="#4B4B4B" stroke-width="1.25" stroke-linecap="round" stroke-linejoin="round"/>
<path id="Vector_204" d="M169.44 322.98H171.77" stroke="#4B4B4B" stroke-width="1.25" stroke-linecap="round" stroke-linejoin="round"/>
<path id="Vector_205" d="M145.78 327.36H164.51" stroke="#4B4B4B" stroke-width="1.25" stroke-linecap="round" stroke-linejoin="round"/>
<path id="Vector_206" d="M167.67 327.16H170.06" stroke="#FF0086" stroke-width="1.25" stroke-linecap="round" stroke-linejoin="round"/>
<path id="Vector_207" d="M138.81 331.54H149.17" stroke="#FF0086" stroke-width="1.25" stroke-linecap="round" stroke-linejoin="round"/>
<path id="Vector_208" d="M150.96 331.74H158.13" stroke="#4B4B4B" stroke-width="1.25" stroke-linecap="round" stroke-linejoin="round"/>
<path id="Vector_209" d="M160.32 331.74H171.88" stroke="#4B4B4B" stroke-width="1.25" stroke-linecap="round" stroke-linejoin="round"/>
<path id="Vector_210" d="M134.42 335.92H160.92" stroke="#FF0086" stroke-width="1.25" stroke-linecap="round" stroke-linejoin="round"/>
<path id="Vector_211" d="M71.42 305.24H107.88" stroke="#4B4B4B" stroke-width="1.25" stroke-linecap="round" stroke-linejoin="round"/>
<path id="Vector_212" d="M71.41 309.63H84.16" stroke="#4B4B4B" stroke-width="1.25" stroke-linecap="round" stroke-linejoin="round"/>
<path id="Vector_213" d="M86.35 309.43H91.53" stroke="#FF0086" stroke-width="1.25" stroke-linecap="round" stroke-linejoin="round"/>
<path id="Vector_214" d="M94.12 309.63H97.11" stroke="#4B4B4B" stroke-width="1.25" stroke-linecap="round" stroke-linejoin="round"/>
<path id="Vector_215" d="M99.9 309.43H102.89" stroke="#E9E9E9" stroke-width="1.25" stroke-linecap="round" stroke-linejoin="round"/>
<path id="Vector_216" d="M80.17 314.01H97.11" stroke="#4B4B4B" stroke-width="1.25" stroke-linecap="round" stroke-linejoin="round"/>
<path id="Vector_217" d="M99.3 313.81H103.48" stroke="#FF0086" stroke-width="1.25" stroke-linecap="round" stroke-linejoin="round"/>
<path id="Vector_218" d="M105.85 313.81H111.12" stroke="#4B4B4B" stroke-width="1.25" stroke-linecap="round" stroke-linejoin="round"/>
<path id="Vector_219" d="M90.14 318.39H92.73" stroke="#4B4B4B" stroke-width="1.25" stroke-linecap="round" stroke-linejoin="round"/>
<path id="Vector_220" d="M95.91 318.19H98.5" stroke="#FF0086" stroke-width="1.25" stroke-linecap="round" stroke-linejoin="round"/>
<path id="Vector_221" d="M100.69 318.19H108.07" stroke="#4B4B4B" stroke-width="1.25" stroke-linecap="round" stroke-linejoin="round"/>
<path id="Vector_222" d="M90.33 322.97L104.33 322.98" stroke="#4B4B4B" stroke-width="1.25" stroke-linecap="round" stroke-linejoin="round"/>
<path id="Vector_223" d="M106.43 322.98H108.75" stroke="#4B4B4B" stroke-width="1.25" stroke-linecap="round" stroke-linejoin="round"/>
<path id="Vector_224" d="M82.76 327.36H101.49" stroke="#4B4B4B" stroke-width="1.25" stroke-linecap="round" stroke-linejoin="round"/>
<path id="Vector_225" d="M104.66 327.16H107.05" stroke="#FF0086" stroke-width="1.25" stroke-linecap="round" stroke-linejoin="round"/>
<path id="Vector_226" d="M75.79 331.54H86.15" stroke="#FF0086" stroke-width="1.25" stroke-linecap="round" stroke-linejoin="round"/>
<path id="Vector_227" d="M87.94 331.74H95.12" stroke="#4B4B4B" stroke-width="1.25" stroke-linecap="round" stroke-linejoin="round"/>
<path id="Vector_228" d="M97.3101 331.74H108.86" stroke="#4B4B4B" stroke-width="1.25" stroke-linecap="round" stroke-linejoin="round"/>
<path id="Vector_229" d="M71.41 335.92H97.9" stroke="#FF0086" stroke-width="1.25" stroke-linecap="round" stroke-linejoin="round"/>
<path id="Vector_230" d="M242.67 384.92H61.42V360.53C61.4174 359.942 61.5307 359.359 61.7534 358.814C61.9761 358.269 62.3039 357.774 62.718 357.356C63.1322 356.938 63.6246 356.606 64.1671 356.379C64.7096 356.151 65.2917 356.033 65.88 356.03H238.22C238.808 356.033 239.389 356.151 239.931 356.379C240.473 356.607 240.965 356.939 241.379 357.357C241.792 357.775 242.119 358.27 242.34 358.815C242.562 359.359 242.674 359.942 242.67 360.53V384.92Z" fill="#EAEAEA" stroke="#4B4B4B" stroke-width="2" stroke-linecap="round" stroke-linejoin="round"/>
<path id="Vector_231" d="M236.67 352.17C238.855 352.175 240.948 353.047 242.491 354.593C244.034 356.14 244.9 358.235 244.9 360.42V428.19H239.9V361.3C239.901 360.889 239.822 360.483 239.665 360.103C239.509 359.723 239.28 359.378 238.99 359.087C238.7 358.797 238.356 358.566 237.976 358.408C237.597 358.251 237.191 358.17 236.78 358.17H67.05C66.2199 358.17 65.4238 358.5 64.8368 359.087C64.2498 359.674 63.92 360.47 63.92 361.3V428.19H58.92V360.42C58.92 358.232 59.7892 356.134 61.3364 354.586C62.8836 353.039 64.982 352.17 67.17 352.17H236.67Z" fill="white" stroke="#4B4B4B" stroke-width="2" stroke-linecap="round" stroke-linejoin="round"/>
<path id="Vector_232" d="M108.9 373.24H117.9V390.48C117.9 391.671 117.427 392.813 116.585 393.655C115.743 394.497 114.601 394.97 113.41 394.97C112.219 394.97 111.077 394.497 110.235 393.655C109.393 392.813 108.92 391.671 108.92 390.48V373.24H108.9Z" fill="#EAEAEA" stroke="#4B4B4B" stroke-width="1.5" stroke-linecap="round" stroke-linejoin="round"/>
<path id="Vector_233" d="M113.42 358.71C114.506 358.71 115.581 358.924 116.585 359.34C117.588 359.755 118.5 360.364 119.268 361.132C120.036 361.9 120.645 362.812 121.06 363.815C121.476 364.819 121.69 365.894 121.69 366.98V372.98C121.69 373.696 121.406 374.383 120.899 374.889C120.393 375.396 119.706 375.68 118.99 375.68H107.84C107.124 375.68 106.437 375.396 105.931 374.889C105.424 374.383 105.14 373.696 105.14 372.98V366.98C105.14 365.893 105.354 364.817 105.77 363.813C106.187 362.809 106.797 361.897 107.566 361.129C108.335 360.361 109.248 359.752 110.252 359.337C111.257 358.922 112.333 358.709 113.42 358.71Z" fill="#EAEAEA" stroke="#4B4B4B" stroke-width="1.5" stroke-linecap="round" stroke-linejoin="round"/>
<path id="Vector_234" d="M146.67 392.06H103.97C103.298 392.06 102.633 391.928 102.012 391.67C101.392 391.413 100.828 391.035 100.353 390.56C99.8785 390.084 99.5023 389.52 99.2461 388.899C98.9899 388.277 98.8587 387.612 98.86 386.94C98.86 385.585 99.3984 384.285 100.357 383.327C101.315 382.368 102.615 381.83 103.97 381.83H146.67C148.025 381.83 149.325 382.368 150.283 383.327C151.242 384.285 151.78 385.585 151.78 386.94C151.781 387.612 151.65 388.277 151.394 388.899C151.138 389.52 150.761 390.084 150.287 390.56C149.812 391.035 149.248 391.413 148.628 391.67C148.007 391.928 147.342 392.06 146.67 392.06Z" fill="#EAEAEA" stroke="#4B4B4B" stroke-width="1.5" stroke-linecap="round" stroke-linejoin="round"/>
<path id="Vector_235" d="M135.53 381.79H98.27C97.2427 381.787 96.2584 381.377 95.5329 380.65C94.8074 379.923 94.4 378.937 94.4 377.91V351.81C94.4 345.843 96.7706 340.12 100.99 335.9C105.21 331.681 110.933 329.31 116.9 329.31C122.867 329.31 128.59 331.681 132.81 335.9C137.029 340.12 139.4 345.843 139.4 351.81V377.91C139.4 378.937 138.993 379.923 138.267 380.65C137.542 381.377 136.557 381.787 135.53 381.79Z" fill="#EAEAEA" stroke="#4B4B4B" stroke-width="1.5" stroke-linecap="round" stroke-linejoin="round"/>
<path id="Vector_236" d="M109.66 422.05H141.53" stroke="#4B4B4B" stroke-width="2" stroke-linecap="round" stroke-linejoin="round"/>
<path id="Vector_237" d="M112.47 425.42C112.472 424.763 112.279 424.119 111.915 423.572C111.551 423.024 111.032 422.597 110.425 422.345C109.818 422.092 109.15 422.026 108.505 422.153C107.86 422.281 107.267 422.598 106.802 423.062C106.338 423.527 106.021 424.12 105.893 424.765C105.766 425.41 105.832 426.078 106.085 426.685C106.337 427.292 106.764 427.811 107.312 428.175C107.859 428.539 108.503 428.732 109.16 428.73C110.037 428.727 110.877 428.378 111.498 427.758C112.118 427.137 112.467 426.297 112.47 425.42Z" fill="#EAEAEA" stroke="#4B4B4B" stroke-width="2" stroke-linecap="round" stroke-linejoin="round"/>
<path id="Vector_238" d="M144.9 425.42C144.902 424.763 144.709 424.12 144.345 423.573C143.982 423.025 143.464 422.598 142.857 422.346C142.251 422.093 141.583 422.026 140.938 422.153C140.294 422.28 139.701 422.595 139.236 423.059C138.771 423.523 138.453 424.114 138.325 424.759C138.196 425.403 138.261 426.071 138.512 426.678C138.763 427.285 139.188 427.805 139.734 428.17C140.281 428.535 140.923 428.73 141.58 428.73C142.459 428.73 143.302 428.382 143.924 427.761C144.546 427.141 144.897 426.299 144.9 425.42Z" fill="#EAEAEA" stroke="#4B4B4B" stroke-width="2" stroke-linecap="round" stroke-linejoin="round"/>
<path id="Vector_239" d="M133.41 425.42C133.412 424.763 133.219 424.119 132.855 423.572C132.491 423.024 131.972 422.597 131.365 422.345C130.758 422.092 130.09 422.026 129.445 422.153C128.8 422.281 128.207 422.598 127.742 423.062C127.278 423.527 126.961 424.12 126.833 424.765C126.706 425.41 126.772 426.078 127.025 426.685C127.277 427.292 127.704 427.811 128.252 428.175C128.799 428.539 129.443 428.732 130.1 428.73C130.977 428.727 131.817 428.378 132.438 427.758C133.058 427.137 133.407 426.297 133.41 425.42Z" fill="#EAEAEA" stroke="#4B4B4B" stroke-width="2" stroke-linecap="round" stroke-linejoin="round"/>
<path id="Vector_240" d="M128.02 399.67H123.96V422.06H128.02V399.67Z" fill="#EAEAEA" stroke="#4B4B4B" stroke-width="1.25" stroke-linecap="round" stroke-linejoin="round"/>
<path id="Vector_241" d="M130.82 392.06H121.16V404.68H130.82V392.06Z" fill="#EAEAEA" stroke="#4B4B4B" stroke-width="1.25" stroke-linecap="round" stroke-linejoin="round"/>
<path id="Vector_242" d="M1366.96 384.92H1185.71V360.53C1185.71 359.942 1185.82 359.359 1186.04 358.815C1186.26 358.27 1186.59 357.775 1187 357.357C1187.41 356.939 1187.91 356.607 1188.45 356.379C1188.99 356.151 1189.57 356.033 1190.16 356.03H1362.5C1363.09 356.033 1363.67 356.151 1364.21 356.379C1364.76 356.606 1365.25 356.938 1365.66 357.356C1366.08 357.774 1366.4 358.269 1366.63 358.814C1366.85 359.359 1366.96 359.942 1366.96 360.53V384.92Z" fill="#EAEAEA" stroke="#4B4B4B" stroke-width="2" stroke-linecap="round" stroke-linejoin="round"/>
<path id="Vector_243" d="M1360.96 352.17C1363.15 352.17 1365.25 353.039 1366.79 354.586C1368.34 356.134 1369.21 358.232 1369.21 360.42V428.19H1364.21V361.3C1364.21 360.47 1363.88 359.674 1363.29 359.087C1362.71 358.5 1361.91 358.17 1361.08 358.17H1191.33C1190.5 358.173 1189.71 358.504 1189.12 359.09C1188.54 359.677 1188.21 360.472 1188.21 361.3V428.19H1183.21V360.42C1183.21 358.232 1184.08 356.134 1185.63 354.586C1187.17 353.039 1189.27 352.17 1191.46 352.17H1360.96Z" fill="white" stroke="#4B4B4B" stroke-width="2" stroke-linecap="round" stroke-linejoin="round"/>
<path id="Vector_244" d="M1127.44 388.88L1133.4 413.25L1123.65 420.84L1125.82 427.34H1152.9L1145.32 381.29L1127.44 388.88Z" fill="#EAEAEA" stroke="#4B4B4B" stroke-width="1.25" stroke-linecap="round" stroke-linejoin="round"/>
<path id="Vector_245" d="M1034.82 387.52V416.5L1024.53 420.29L1025.61 426.25H1047.82L1034.82 387.52Z" fill="#EAEAEA" stroke="#4B4B4B" stroke-width="1.25" stroke-linecap="round" stroke-linejoin="round"/>
<path id="Vector_246" d="M929.19 379.13L918.9 364.5L932.98 353.67L934.07 345.54L989.32 309.79L1041.86 280L1058.65 282.71L1119.86 280.54L1148.03 291.92L1180.53 304.92L1217.9 358L1201.11 354.75L1190.28 388.88L1157.78 434.92H1130.69L1128.53 428.42L1138.28 420.84L1132.32 396.46L1070.03 386.71L1053.23 434.92H1022.36L1020.19 428.96L1032.65 422.46L1026.15 382.92L988.78 378.04L962.23 383.46L949.23 381.84L943.82 375.88L929.19 379.13Z" fill="white" stroke="#4B4B4B" stroke-width="2" stroke-linecap="round" stroke-linejoin="round"/>
<path id="Vector_247" d="M925.46 373.83L939.48 368.29" stroke="#4B4B4B" stroke-width="1.25" stroke-linecap="round" stroke-linejoin="round"/>
<path id="Vector_248" d="M938.94 349.88L942.19 348.25" stroke="#4B4B4B" stroke-width="1.25" stroke-linecap="round" stroke-linejoin="round"/>
<path id="Vector_249" d="M1070.02 386.71L1073.82 375.34" stroke="#4B4B4B" stroke-width="1.25" stroke-linecap="round" stroke-linejoin="round"/>
<path id="Vector_250" d="M1132.32 396.46L1129.61 384.54" stroke="#4B4B4B" stroke-width="1.25" stroke-linecap="round" stroke-linejoin="round"/>
<g id="Vector_251">
<path d="M963.86 330.92L966.03 315.75L974.15 314.13L979.03 325.5" fill="white"/>
<path d="M963.86 330.92L966.03 315.75L974.15 314.13L979.03 325.5" stroke="#4B4B4B" stroke-width="2" stroke-linecap="round" stroke-linejoin="round"/>
</g>
<path id="Vector_252" d="M1449.06 333.5L1448.06 374.55L1464.29 415.09L1462.59 415.66L1446.15 416.49L1433.41 393.29L1435.16 417.04L1413.06 418.15L1408.77 380.51C1408.17 375.37 1408.87 370.2 1408.87 365.02V333.5" fill="white"/>
<path id="Vector_253" d="M1433.23 353.58L1432.23 367.58C1431.95 371.06 1431.93 374.556 1432.15 378.04L1433.15 391.87L1439.09 403.04L1433.23 353.58Z" fill="#EAEAEA"/>
<path id="Vector_254" d="M1449.06 333.5L1448.93 376.04L1462.43 410.04L1445.68 416.79L1433.27 391.87L1435.56 418.37L1413.08 418.15L1409.77 380.42C1409.17 375.325 1408.88 370.2 1408.89 365.07V333.5" stroke="#4B4B4B" stroke-width="2" stroke-linecap="round" stroke-linejoin="round"/>
<path id="Vector_255" d="M1435.11 419.65L1432.19 378.04C1431.97 374.556 1431.99 371.06 1432.27 367.58L1433.27 353.58" stroke="#4B4B4B" stroke-width="1.25" stroke-linecap="round" stroke-linejoin="round"/>
<path id="Vector_256" d="M1435.11 418.15H1416.57C1411.94 418.15 1408.19 421.25 1408.19 426.3V427.42H1435.11V418.15Z" fill="#EAEAEA" stroke="#4B4B4B" stroke-width="2" stroke-linecap="round" stroke-linejoin="round"/>
<path id="Vector_257" d="M1448.77 333.87H1408.52" stroke="#4B4B4B" stroke-width="1.25" stroke-linecap="round" stroke-linejoin="round"/>
<path id="Vector_258" d="M1440.57 427.42H1444.9L1465.96 418.21L1462.25 409.73L1445.25 417.15C1441.14 418.89 1438.95 422.95 1440.57 427.42Z" fill="#EAEAEA" stroke="#4B4B4B" stroke-width="2" stroke-linecap="round" stroke-linejoin="round"/>
<path id="Vector_259" d="M1392.9 311.07L1399.1 335.87L1407.76 334.1V338.04H1454.7L1463.7 303.04C1464.39 300.339 1464.26 297.492 1463.31 294.87L1457.4 278.53C1456.56 276.206 1455.12 274.147 1453.23 272.565C1451.33 270.983 1449.05 269.935 1446.61 269.53C1435.16 267.64 1428 267.66 1420.27 268.74C1416.47 269.279 1412.85 270.677 1409.68 272.828C1406.5 274.978 1403.86 277.824 1401.95 281.15L1395.5 292.42C1392.26 298.068 1391.33 304.751 1392.9 311.07Z" fill="white" stroke="#4B4B4B" stroke-width="2" stroke-linecap="round" stroke-linejoin="round"/>
<path id="Vector_260" d="M1408.43 334.29L1406.43 304.79L1409.93 292.54L1415.43 338.04H1408.18L1408.43 334.29Z" fill="#EAEAEA"/>
<path id="Vector_261" d="M1392.9 311.07L1399.1 335.87L1407.76 334.1V338.04H1454.7L1463.7 303.04C1464.39 300.339 1464.26 297.492 1463.31 294.87L1457.4 278.53C1456.56 276.206 1455.12 274.147 1453.23 272.565C1451.33 270.983 1449.05 269.935 1446.61 269.53C1435.16 267.64 1428 267.66 1420.27 268.74C1416.47 269.279 1412.85 270.677 1409.68 272.828C1406.5 274.978 1403.86 277.824 1401.95 281.15L1395.5 292.42C1392.26 298.068 1391.33 304.751 1392.9 311.07Z" stroke="#4B4B4B" stroke-width="2" stroke-linecap="round" stroke-linejoin="round"/>
<path id="Vector_262" d="M1408.43 334.29L1406.43 304.79L1409.93 292.54" stroke="#4B4B4B" stroke-width="1.25" stroke-linecap="round" stroke-linejoin="round"/>
<path id="Vector_263" d="M1408.16 346.98H1407.61C1404.47 346.98 1401.93 343.61 1401.93 339.44V335.44L1408.16 334.33V346.98Z" fill="white" stroke="#4B4B4B" stroke-width="1.25" stroke-linecap="round" stroke-linejoin="round"/>
<path id="Vector_264" d="M1430.67 227.33H1425.3C1417.78 227.33 1411.68 233.428 1411.68 240.95V257.7C1411.68 265.222 1417.78 271.32 1425.3 271.32H1430.67C1438.19 271.32 1444.29 265.222 1444.29 257.7V240.95C1444.29 233.428 1438.19 227.33 1430.67 227.33Z" fill="white" stroke="#4B4B4B" stroke-width="2" stroke-linecap="round" stroke-linejoin="round"/>
<path id="Vector_265" d="M1411.68 230.95C1418.68 221.9 1434.41 222.9 1440.22 227.33C1446.03 231.76 1445.03 239.86 1444.29 258.25C1443.55 276.64 1427.98 268.85 1427.98 268.85C1427.98 268.85 1421.98 268.95 1421.34 263.94C1420.7 258.93 1423.42 245.31 1420.72 243.06C1418.02 240.81 1412 242.06 1410.72 239.81C1410.06 238.386 1409.8 236.808 1409.97 235.246C1410.14 233.685 1410.73 232.2 1411.68 230.95Z" fill="#EAEAEA" stroke="#4B4B4B" stroke-width="2" stroke-linecap="round" stroke-linejoin="round"/>
<path id="Vector_266" d="M1404.77 240.59C1404.77 235.394 1406.83 230.412 1410.51 226.738C1414.18 223.064 1419.16 221 1424.36 221H1432.24C1437.44 221 1442.42 223.064 1446.09 226.738C1449.77 230.412 1451.83 235.394 1451.83 240.59V265.53C1451.83 266.341 1451.6 267.134 1451.15 267.81C1443 279.81 1412.53 278.7 1405.42 267.81C1404.99 267.145 1404.77 266.371 1404.77 265.58V240.59Z" stroke="#4B4B4B" stroke-width="1.25" stroke-linecap="round" stroke-linejoin="round"/>
<path id="Vector_267" d="M1455.9 346.8C1455.95 347.007 1455.95 347.223 1455.91 347.431C1455.86 347.64 1455.77 347.835 1455.64 348.002C1455.51 348.17 1455.34 348.305 1455.15 348.398C1454.95 348.491 1454.74 348.54 1454.53 348.54H1436.53C1436.34 348.544 1436.14 348.503 1435.97 348.419C1435.79 348.336 1435.64 348.212 1435.52 348.058C1435.4 347.904 1435.32 347.725 1435.28 347.534C1435.25 347.343 1435.26 347.147 1435.31 346.96L1438.72 335.13H1453.01L1455.9 346.8Z" fill="#EAEAEA"/>
<path id="Vector_268" d="M1448.9 335.13H1442.9C1436.57 335.13 1434.22 330.01 1434.22 323.69V280.87C1434.22 277.849 1435.41 274.95 1437.54 272.805C1439.67 270.661 1442.56 269.444 1445.58 269.42C1447.08 269.42 1448.57 269.716 1449.96 270.292C1451.35 270.867 1452.61 271.711 1453.67 272.774C1454.74 273.838 1455.58 275.1 1456.15 276.489C1456.73 277.878 1457.02 279.367 1457.02 280.87V323.69C1457.02 330.01 1455.17 335.13 1448.9 335.13Z" fill="#EAEAEA"/>
<path id="Vector_269" d="M1455.9 346.8C1455.95 347.007 1455.95 347.223 1455.91 347.431C1455.86 347.64 1455.77 347.835 1455.64 348.002C1455.51 348.17 1455.34 348.305 1455.15 348.398C1454.95 348.491 1454.74 348.54 1454.53 348.54H1436.53C1436.34 348.544 1436.14 348.503 1435.97 348.419C1435.79 348.336 1435.64 348.212 1435.52 348.058C1435.4 347.904 1435.32 347.725 1435.28 347.534C1435.25 347.343 1435.26 347.147 1435.31 346.96L1438.72 335.13H1453.01L1455.9 346.8Z" stroke="#4B4B4B" stroke-width="2" stroke-miterlimit="10"/>
<path id="Vector_270" d="M1448.9 335.13H1442.9C1436.57 335.13 1434.22 330.01 1434.22 323.69V280.87C1434.22 277.849 1435.41 274.95 1437.54 272.805C1439.67 270.661 1442.56 269.444 1445.58 269.42C1447.08 269.42 1448.57 269.716 1449.96 270.292C1451.35 270.867 1452.61 271.711 1453.67 272.774C1454.74 273.838 1455.58 275.1 1456.15 276.489C1456.73 277.878 1457.02 279.367 1457.02 280.87V323.69C1457.02 330.01 1455.17 335.13 1448.9 335.13Z" stroke="#4B4B4B" stroke-width="2" stroke-miterlimit="10"/>
<path id="Vector_271" d="M1441.15 346.8C1441.2 347.007 1441.2 347.223 1441.16 347.431C1441.11 347.64 1441.02 347.835 1440.89 348.002C1440.76 348.17 1440.59 348.305 1440.4 348.398C1440.2 348.491 1439.99 348.54 1439.78 348.54H1421.78C1421.59 348.544 1421.39 348.503 1421.22 348.419C1421.04 348.336 1420.89 348.212 1420.77 348.058C1420.65 347.904 1420.57 347.725 1420.53 347.534C1420.5 347.343 1420.51 347.147 1420.56 346.96L1423.97 335.13H1438.26L1441.15 346.8Z" fill="#EAEAEA"/>
<path id="Vector_272" d="M1434.1 335.13H1428.1C1421.77 335.13 1419.42 330.01 1419.42 323.69V280.87C1419.42 277.84 1420.62 274.934 1422.76 272.788C1424.9 270.642 1427.8 269.431 1430.83 269.42C1432.33 269.42 1433.82 269.716 1435.21 270.292C1436.6 270.867 1437.86 271.711 1438.92 272.774C1439.99 273.838 1440.83 275.1 1441.4 276.489C1441.98 277.878 1442.27 279.367 1442.27 280.87V323.69C1442.27 330.01 1440.42 335.13 1434.1 335.13Z" fill="#EAEAEA"/>
<path id="Vector_273" d="M1441.15 346.8C1441.2 347.007 1441.2 347.223 1441.16 347.431C1441.11 347.64 1441.02 347.835 1440.89 348.002C1440.76 348.17 1440.59 348.305 1440.4 348.398C1440.2 348.491 1439.99 348.54 1439.78 348.54H1421.78C1421.59 348.544 1421.39 348.503 1421.22 348.419C1421.04 348.336 1420.89 348.212 1420.77 348.058C1420.65 347.904 1420.57 347.725 1420.53 347.534C1420.5 347.343 1420.51 347.147 1420.56 346.96L1423.97 335.13H1438.26L1441.15 346.8Z" stroke="#4B4B4B" stroke-width="2" stroke-miterlimit="10"/>
<path id="Vector_274" d="M1434.1 335.13H1428.1C1421.77 335.13 1419.42 330.01 1419.42 323.69V280.87C1419.42 277.84 1420.62 274.934 1422.76 272.788C1424.9 270.642 1427.8 269.431 1430.83 269.42C1432.33 269.42 1433.82 269.716 1435.21 270.292C1436.6 270.867 1437.86 271.711 1438.92 272.774C1439.99 273.838 1440.83 275.1 1441.4 276.489C1441.98 277.878 1442.27 279.367 1442.27 280.87V323.69C1442.27 330.01 1440.42 335.13 1434.1 335.13Z" stroke="#4B4B4B" stroke-width="2" stroke-miterlimit="10"/>
<path id="Vector_275" d="M1262.2 338.23L1263.71 338.372C1264.77 338.471 1265.74 338.985 1266.42 339.802C1267.1 340.619 1267.42 341.671 1267.32 342.727C1267.22 343.784 1266.71 344.757 1265.89 345.434C1265.08 346.111 1264.02 346.436 1262.97 346.337L1261.45 346.195L1262.2 338.23Z" stroke="#4B4B4B" stroke-width="1.25" stroke-linecap="round" stroke-linejoin="round"/>
<path id="Vector_276" d="M1252.72 333.738L1251.35 348.364L1263.14 349.468L1264.51 334.842L1252.72 333.738Z" fill="white" stroke="#4B4B4B" stroke-width="1.25" stroke-linecap="round" stroke-linejoin="round"/>
<path id="Vector_277" d="M1283.56 370.29C1275.12 370.29 1269.19 377.29 1269.49 385.73L1270.68 418.54H1302.68L1304.43 389.29C1309.95 389.29 1324.79 385.38 1325.86 379.97L1327.77 370.29H1327.18" fill="white"/>
<path id="Vector_278" d="M1303.11 418.57H1284.57C1279.94 418.57 1276.19 421.66 1276.19 426.71V427.83H1303.11V418.57Z" fill="#EAEAEA" stroke="#4B4B4B" stroke-width="2" stroke-linecap="round" stroke-linejoin="round"/>
<path id="Vector_279" d="M1283.56 370.29C1275.12 370.29 1269.19 377.29 1269.49 385.73L1270.68 418.54H1302.68L1304.43 389.29C1309.95 389.29 1324.79 385.38 1325.86 379.97L1327.77 370.29H1327.18" stroke="#4B4B4B" stroke-width="2" stroke-linecap="round" stroke-linejoin="round"/>
<path id="Vector_280" d="M1289.68 418.54L1289.76 391.79C1289.93 387.16 1299.91 387.03 1299.91 387.03L1297.18 390.44C1294.89 393.288 1293.37 396.682 1292.78 400.29L1289.78 418.57" fill="#EAEAEA"/>
<path id="Vector_281" d="M1289.68 418.54L1289.76 391.79C1289.93 387.16 1299.91 387.03 1299.91 387.03" stroke="#4B4B4B" stroke-width="1.25" stroke-linecap="round" stroke-linejoin="round"/>
<path id="Vector_282" d="M1289.78 418.57H1271.24C1266.61 418.57 1262.85 421.66 1262.85 426.71V427.83H1289.78V418.57Z" fill="#EAEAEA" stroke="#4B4B4B" stroke-width="2" stroke-linecap="round" stroke-linejoin="round"/>
<path id="Vector_283" d="M1283.47 370.42V360.22L1273.54 357.01C1272.6 356.342 1271.8 355.486 1271.21 354.496C1270.61 353.506 1270.23 352.403 1270.08 351.258C1269.93 350.112 1270.02 348.948 1270.34 347.838C1270.66 346.729 1271.21 345.698 1271.95 344.81C1272.73 343.876 1273.75 343.171 1274.9 342.77C1276.04 342.368 1277.28 342.285 1278.47 342.53L1281.22 343.09C1282.33 343.305 1283.47 343.073 1284.41 342.446C1285.35 341.818 1286 340.845 1286.22 339.74L1287.92 326C1288.51 323.045 1289.98 320.337 1292.14 318.235C1294.3 316.132 1297.05 314.733 1300.02 314.22L1317.84 311.55L1322.84 312.89C1325.96 313.73 1328.71 315.575 1330.67 318.138C1332.64 320.702 1333.7 323.841 1333.7 327.07V370.42" fill="white"/>
<path id="Vector_284" d="M1300.56 348.91L1296.21 355.73C1294.01 360.56 1288.45 361.88 1283.48 360.04V370.54H1299.07L1300.56 348.91Z" fill="#EAEAEA"/>
<path id="Vector_285" d="M1334.1 370.54H1283.43" stroke="#4B4B4B" stroke-width="1.25" stroke-linecap="round" stroke-linejoin="round"/>
<path id="Vector_286" d="M1272.15 354.67L1265.32 349.37C1265.15 349.24 1263.02 344.12 1267.2 340.59C1268.34 339.59 1270.2 340.38 1271.59 340.82L1276.84 342.45C1276.84 342.45 1267.39 343.26 1272.15 354.67Z" fill="white" stroke="#4B4B4B" stroke-width="1.25" stroke-linecap="round" stroke-linejoin="round"/>
<path id="Vector_287" d="M1283.47 370.42V360.22L1273.54 357.01C1272.6 356.342 1271.8 355.486 1271.21 354.496C1270.61 353.506 1270.23 352.403 1270.08 351.258C1269.93 350.112 1270.02 348.948 1270.34 347.838C1270.66 346.729 1271.21 345.698 1271.95 344.81C1272.73 343.876 1273.75 343.171 1274.9 342.77C1276.04 342.368 1277.28 342.285 1278.47 342.53L1281.22 343.09C1282.33 343.305 1283.47 343.073 1284.41 342.446C1285.35 341.818 1286 340.845 1286.22 339.74L1287.92 326C1288.51 323.045 1289.98 320.337 1292.14 318.235C1294.3 316.132 1297.05 314.733 1300.02 314.22L1317.84 311.55L1322.84 312.89C1325.96 313.73 1328.71 315.575 1330.67 318.138C1332.64 320.702 1333.7 323.841 1333.7 327.07V370.42" stroke="#4B4B4B" stroke-width="2" stroke-linecap="round" stroke-linejoin="round"/>
<path id="Vector_288" d="M1283.47 360.21C1283.53 360.21 1283.59 360.08 1283.65 360.11C1285.92 360.928 1288.4 360.965 1290.69 360.215C1292.98 359.465 1294.95 357.971 1296.3 355.97L1300.56 349.91" stroke="#4B4B4B" stroke-width="1.25" stroke-linecap="round" stroke-linejoin="round"/>
<path id="Vector_289" d="M1313.17 275.33H1307.8C1300.28 275.33 1294.18 281.428 1294.18 288.95V305.7C1294.18 313.222 1300.28 319.32 1307.8 319.32H1313.17C1320.69 319.32 1326.79 313.222 1326.79 305.7V288.95C1326.79 281.428 1320.69 275.33 1313.17 275.33Z" fill="white" stroke="#4B4B4B" stroke-width="2" stroke-linecap="round" stroke-linejoin="round"/>
<path id="Vector_290" d="M1294.18 278.95C1301.18 269.95 1316.92 270.95 1322.73 275.33C1328.54 279.71 1327.53 287.86 1326.79 306.25C1326.05 324.64 1310.48 316.85 1310.48 316.85C1310.48 316.85 1304.48 316.95 1303.84 311.94C1303.2 306.93 1305.92 293.31 1303.22 291.06C1300.52 288.81 1294.5 290.06 1293.22 287.81C1292.56 286.386 1292.3 284.808 1292.47 283.247C1292.64 281.685 1293.23 280.2 1294.18 278.95Z" fill="#EAEAEA" stroke="#4B4B4B" stroke-width="2" stroke-linecap="round" stroke-linejoin="round"/>
<path id="Vector_291" d="M1287.27 288.59C1287.27 286.014 1287.78 283.463 1288.77 281.084C1289.75 278.705 1291.2 276.543 1293.02 274.724C1294.85 272.904 1297.01 271.462 1299.39 270.48C1301.77 269.498 1304.32 268.995 1306.9 269H1314.79C1319.98 269.003 1324.96 271.068 1328.64 274.741C1332.31 278.415 1334.37 283.396 1334.37 288.59V313.53C1334.38 314.341 1334.14 315.137 1333.69 315.81C1325.54 327.81 1295.07 326.7 1287.96 315.81C1287.53 315.145 1287.31 314.371 1287.31 313.58L1287.27 288.59Z" stroke="#4B4B4B" stroke-width="1.25" stroke-linecap="round" stroke-linejoin="round"/>
<path id="Vector_292" d="M1340.9 384.3C1340.95 384.507 1340.95 384.723 1340.91 384.931C1340.86 385.14 1340.77 385.335 1340.64 385.502C1340.51 385.67 1340.34 385.805 1340.15 385.898C1339.95 385.991 1339.74 386.04 1339.53 386.04H1321.53C1321.34 386.044 1321.14 386.003 1320.97 385.919C1320.79 385.836 1320.64 385.712 1320.52 385.558C1320.4 385.404 1320.32 385.225 1320.28 385.034C1320.25 384.843 1320.26 384.647 1320.31 384.46L1323.72 372.63H1338.01L1340.9 384.3Z" fill="#EAEAEA"/>
<path id="Vector_293" d="M1333.9 372.63H1327.9C1321.58 372.63 1319.22 367.51 1319.22 361.19V323.42C1319.22 320.383 1320.43 317.471 1322.57 315.324C1324.72 313.176 1327.63 311.97 1330.67 311.97C1333.69 311.994 1336.58 313.211 1338.7 315.356C1340.83 317.501 1342.02 320.4 1342.02 323.42V361.24C1342.02 367.51 1340.18 372.63 1333.9 372.63Z" fill="#EAEAEA"/>
<path id="Vector_294" d="M1340.9 384.3C1340.95 384.507 1340.95 384.723 1340.91 384.931C1340.86 385.14 1340.77 385.335 1340.64 385.502C1340.51 385.67 1340.34 385.805 1340.15 385.898C1339.95 385.991 1339.74 386.04 1339.53 386.04H1321.53C1321.34 386.044 1321.14 386.003 1320.97 385.919C1320.79 385.836 1320.64 385.712 1320.52 385.558C1320.4 385.404 1320.32 385.225 1320.28 385.034C1320.25 384.843 1320.26 384.647 1320.31 384.46L1323.72 372.63H1338.01L1340.9 384.3Z" stroke="#4B4B4B" stroke-width="2" stroke-miterlimit="10"/>
<path id="Vector_295" d="M1333.9 372.63H1327.9C1321.58 372.63 1319.22 367.51 1319.22 361.19V323.42C1319.22 320.383 1320.43 317.471 1322.57 315.324C1324.72 313.176 1327.63 311.97 1330.67 311.97C1333.69 311.994 1336.58 313.211 1338.7 315.356C1340.83 317.501 1342.02 320.4 1342.02 323.42V361.24C1342.02 367.51 1340.18 372.63 1333.9 372.63Z" stroke="#4B4B4B" stroke-width="2" stroke-miterlimit="10"/>
<path id="Vector_296" d="M1326.15 384.3C1326.2 384.507 1326.2 384.723 1326.16 384.931C1326.11 385.14 1326.02 385.335 1325.89 385.502C1325.76 385.67 1325.59 385.805 1325.4 385.898C1325.2 385.991 1324.99 386.04 1324.78 386.04H1306.78C1306.59 386.044 1306.39 386.003 1306.22 385.919C1306.04 385.836 1305.89 385.712 1305.77 385.558C1305.65 385.404 1305.57 385.225 1305.53 385.034C1305.5 384.843 1305.51 384.647 1305.56 384.46L1308.97 372.63H1323.26L1326.15 384.3Z" fill="#EAEAEA"/>
<path id="Vector_297" d="M1319.1 372.63H1313.1C1306.78 372.63 1304.42 367.51 1304.42 361.19V323.42C1304.42 320.383 1305.63 317.471 1307.77 315.324C1309.92 313.176 1312.83 311.97 1315.87 311.97C1318.9 311.981 1321.8 313.192 1323.94 315.338C1326.07 317.485 1327.27 320.391 1327.27 323.42V361.24C1327.27 367.51 1325.43 372.63 1319.1 372.63Z" fill="#EAEAEA"/>
<path id="Vector_298" d="M1326.15 384.3C1326.2 384.507 1326.2 384.723 1326.16 384.931C1326.11 385.14 1326.02 385.335 1325.89 385.502C1325.76 385.67 1325.59 385.805 1325.4 385.898C1325.2 385.991 1324.99 386.04 1324.78 386.04H1306.78C1306.59 386.044 1306.39 386.003 1306.22 385.919C1306.04 385.836 1305.89 385.712 1305.77 385.558C1305.65 385.404 1305.57 385.225 1305.53 385.034C1305.5 384.843 1305.51 384.647 1305.56 384.46L1308.97 372.63H1323.26L1326.15 384.3Z" stroke="#4B4B4B" stroke-width="2" stroke-miterlimit="10"/>
<path id="Vector_299" d="M1319.1 372.63H1313.1C1306.78 372.63 1304.42 367.51 1304.42 361.19V323.42C1304.42 320.383 1305.63 317.471 1307.77 315.324C1309.92 313.176 1312.83 311.97 1315.87 311.97C1318.9 311.981 1321.8 313.192 1323.94 315.338C1326.07 317.485 1327.27 320.391 1327.27 323.42V361.24C1327.27 367.51 1325.43 372.63 1319.1 372.63Z" stroke="#4B4B4B" stroke-width="2" stroke-miterlimit="10"/>
<path id="Vector_300" d="M1298.4 395.92H1341.09C1342.45 395.92 1343.75 395.381 1344.71 394.42C1345.67 393.46 1346.21 392.158 1346.21 390.8C1346.21 389.442 1345.67 388.14 1344.71 387.18C1343.75 386.219 1342.45 385.68 1341.09 385.68H1298.4C1297.04 385.68 1295.74 386.219 1294.78 387.18C1293.82 388.14 1293.28 389.442 1293.28 390.8C1293.28 392.158 1293.82 393.46 1294.78 394.42C1295.74 395.381 1297.04 395.92 1298.4 395.92Z" fill="#EAEAEA" stroke="#4B4B4B" stroke-width="1.5" stroke-linecap="round" stroke-linejoin="round"/>
<path id="Vector_301" d="M1313.53 385.64H1350.79C1351.82 385.64 1352.8 385.233 1353.53 384.507C1354.26 383.782 1354.67 382.797 1354.67 381.77V355.66C1354.67 349.692 1352.29 343.969 1348.07 339.749C1343.85 335.53 1338.13 333.16 1332.16 333.16C1326.19 333.163 1320.47 335.535 1316.25 339.757C1312.03 343.978 1309.66 349.702 1309.66 355.67V381.77C1309.66 382.796 1310.07 383.781 1310.79 384.507C1311.52 385.232 1312.5 385.64 1313.53 385.64Z" fill="#EAEAEA" stroke="#4B4B4B" stroke-width="1.5" stroke-linecap="round" stroke-linejoin="round"/>
<path id="Vector_302" d="M1338.65 398.82C1337.46 398.82 1336.32 398.347 1335.48 397.505C1334.63 396.663 1334.16 395.521 1334.16 394.33V377.09H1343.16V394.33C1343.16 394.921 1343.04 395.507 1342.82 396.053C1342.59 396.599 1342.26 397.095 1341.84 397.512C1341.42 397.929 1340.92 398.26 1340.37 398.484C1339.83 398.708 1339.24 398.823 1338.65 398.82Z" fill="#EAEAEA" stroke="#4B4B4B" stroke-width="1.5" stroke-linecap="round" stroke-linejoin="round"/>
<path id="Vector_303" d="M1344.23 379.49H1333.08C1332.36 379.49 1331.68 379.206 1331.17 378.699C1330.66 378.193 1330.38 377.506 1330.38 376.79V370.79C1330.38 368.597 1331.25 366.493 1332.8 364.942C1334.35 363.391 1336.46 362.52 1338.65 362.52C1340.84 362.52 1342.95 363.391 1344.5 364.942C1346.05 366.493 1346.92 368.597 1346.92 370.79V376.79C1346.92 377.506 1346.64 378.193 1346.13 378.699C1345.62 379.206 1344.94 379.49 1344.22 379.49H1344.23Z" fill="#EAEAEA" stroke="#4B4B4B" stroke-width="1.5" stroke-linecap="round" stroke-linejoin="round"/>
<path id="Vector_304" d="M1335.41 420.91H1303.53" stroke="#4B4B4B" stroke-width="2" stroke-linecap="round" stroke-linejoin="round"/>
<path id="Vector_305" d="M1332.59 424.24C1332.59 423.583 1332.78 422.941 1333.15 422.395C1333.51 421.85 1334.03 421.424 1334.64 421.173C1335.25 420.921 1335.91 420.856 1336.56 420.984C1337.2 421.112 1337.79 421.428 1338.26 421.892C1338.72 422.357 1339.04 422.948 1339.17 423.592C1339.29 424.236 1339.23 424.904 1338.98 425.511C1338.73 426.117 1338.3 426.636 1337.75 427C1337.21 427.365 1336.57 427.56 1335.91 427.56C1335.47 427.561 1335.04 427.476 1334.64 427.31C1334.23 427.144 1333.87 426.899 1333.56 426.591C1333.25 426.282 1333.01 425.915 1332.84 425.512C1332.67 425.109 1332.59 424.676 1332.59 424.24Z" fill="#EAEAEA" stroke="#4B4B4B" stroke-width="2" stroke-linecap="round" stroke-linejoin="round"/>
<path id="Vector_306" d="M1300.22 424.24C1300.22 423.583 1300.42 422.941 1300.78 422.394C1301.15 421.848 1301.66 421.423 1302.27 421.172C1302.88 420.921 1303.55 420.856 1304.19 420.985C1304.84 421.113 1305.43 421.431 1305.89 421.896C1306.36 422.361 1306.67 422.954 1306.8 423.598C1306.92 424.243 1306.86 424.911 1306.6 425.517C1306.35 426.124 1305.92 426.642 1305.38 427.005C1304.83 427.369 1304.19 427.562 1303.53 427.56C1303.09 427.56 1302.66 427.474 1302.26 427.307C1301.86 427.14 1301.49 426.895 1301.19 426.587C1300.88 426.279 1300.63 425.912 1300.47 425.51C1300.3 425.107 1300.22 424.675 1300.22 424.24Z" fill="#EAEAEA" stroke="#4B4B4B" stroke-width="2" stroke-linecap="round" stroke-linejoin="round"/>
<path id="Vector_307" d="M1311.65 424.24C1311.65 423.583 1311.84 422.941 1312.21 422.395C1312.57 421.85 1313.09 421.424 1313.7 421.173C1314.31 420.921 1314.97 420.856 1315.62 420.984C1316.26 421.112 1316.85 421.428 1317.32 421.892C1317.78 422.357 1318.1 422.948 1318.23 423.592C1318.35 424.236 1318.29 424.904 1318.04 425.511C1317.79 426.117 1317.36 426.636 1316.81 427C1316.27 427.365 1315.63 427.56 1314.97 427.56C1314.09 427.56 1313.25 427.21 1312.62 426.588C1312 425.965 1311.65 425.121 1311.65 424.24Z" fill="#EAEAEA" stroke="#4B4B4B" stroke-width="2" stroke-linecap="round" stroke-linejoin="round"/>
<path id="Vector_308" d="M1321.1 403.52H1317.04V420.91H1321.1V403.52Z" fill="#EAEAEA" stroke="#4B4B4B" stroke-width="1.25" stroke-linecap="round" stroke-linejoin="round"/>
<path id="Vector_309" d="M1323.9 395.92H1314.24V408.54H1323.9V395.92Z" fill="#EAEAEA" stroke="#4B4B4B" stroke-width="1.25" stroke-linecap="round" stroke-linejoin="round"/>
<g id="left">
<path id="Vector_310" d="M116.23 364.64C116.303 364.841 116.329 365.057 116.305 365.27C116.281 365.483 116.208 365.688 116.091 365.868C115.975 366.048 115.819 366.199 115.635 366.308C115.451 366.418 115.244 366.484 115.03 366.5L97.0901 368.16C96.897 368.181 96.7017 368.156 96.52 368.088C96.3383 368.019 96.1752 367.909 96.0439 367.766C95.9125 367.623 95.8166 367.451 95.7638 367.264C95.7111 367.077 95.7029 366.881 95.74 366.69L98.0401 354.61L112.27 353.29L116.23 364.64Z" fill="#EAEAEA"/>
<path id="Vector_311" d="M108.14 353.67L102.14 354.23C95.85 354.81 93.03 349.93 92.45 343.63L88.51 300.99C88.2319 297.968 89.1647 294.96 91.1035 292.625C93.0423 290.291 95.8285 288.821 98.85 288.54C101.872 288.262 104.88 289.195 107.215 291.133C109.549 293.072 111.019 295.858 111.3 298.88L115.24 341.52C115.8 347.82 114.44 353.09 108.14 353.67Z" fill="#EAEAEA"/>
<path id="Vector_312" d="M116.23 364.64C116.303 364.841 116.329 365.057 116.305 365.27C116.281 365.483 116.208 365.688 116.091 365.868C115.975 366.048 115.819 366.199 115.635 366.308C115.451 366.418 115.244 366.484 115.03 366.5L97.0901 368.16C96.897 368.181 96.7017 368.156 96.52 368.088C96.3383 368.019 96.1752 367.909 96.0439 367.766C95.9125 367.623 95.8166 367.451 95.7638 367.264C95.7111 367.077 95.7029 366.881 95.74 366.69L98.0401 354.61L112.27 353.29L116.23 364.64Z" stroke="#4B4B4B" stroke-width="2" stroke-miterlimit="10"/>
<path id="Vector_313" d="M108.14 353.67L102.14 354.23C95.85 354.81 93.03 349.93 92.45 343.63L88.51 300.99C88.2319 297.968 89.1647 294.96 91.1035 292.625C93.0423 290.291 95.8285 288.821 98.85 288.54C101.872 288.262 104.88 289.195 107.215 291.133C109.549 293.072 111.019 295.858 111.3 298.88L115.24 341.52C115.8 347.82 114.44 353.09 108.14 353.67Z" stroke="#4B4B4B" stroke-width="2" stroke-miterlimit="10"/>
<path id="Vector_314" d="M101.55 365.99C101.621 366.192 101.645 366.408 101.62 366.62C101.595 366.833 101.522 367.037 101.406 367.218C101.29 367.398 101.135 367.549 100.952 367.661C100.769 367.772 100.563 367.84 100.35 367.86L82.41 369.52C82.2162 369.543 82.0198 369.519 81.8367 369.451C81.6537 369.384 81.4892 369.274 81.3567 369.13C81.2242 368.987 81.1273 368.815 81.0741 368.627C81.0208 368.439 81.0125 368.242 81.05 368.05L83.36 355.96L97.58 354.65L101.55 365.99Z" fill="#EAEAEA"/>
<path id="Vector_315" d="M93.46 355.03L87.46 355.59C81.17 356.17 78.36 351.28 77.77 344.99L73.83 302.35C73.691 300.853 73.8482 299.344 74.2926 297.909C74.7371 296.473 75.4601 295.139 76.4203 293.983C77.3806 292.826 78.5592 291.871 79.889 291.17C81.2187 290.47 82.6734 290.038 84.17 289.9C85.6665 289.761 87.1758 289.918 88.6115 290.363C90.0472 290.807 91.3813 291.53 92.5375 292.49C93.6937 293.451 94.6493 294.629 95.3498 295.959C96.0503 297.289 96.4819 298.743 96.62 300.24L100.57 342.88C101.12 349.18 99.75 354.42 93.46 355.03Z" fill="#EAEAEA"/>
<path id="Vector_316" d="M101.55 365.99C101.621 366.192 101.645 366.408 101.62 366.62C101.595 366.833 101.522 367.037 101.406 367.218C101.29 367.398 101.135 367.549 100.952 367.661C100.769 367.772 100.563 367.84 100.35 367.86L82.41 369.52C82.2162 369.543 82.0198 369.519 81.8367 369.451C81.6537 369.384 81.4892 369.274 81.3567 369.13C81.2242 368.987 81.1273 368.815 81.0741 368.627C81.0208 368.439 81.0125 368.242 81.05 368.05L83.36 355.96L97.58 354.65L101.55 365.99Z" stroke="#4B4B4B" stroke-width="2" stroke-miterlimit="10"/>
<path id="Vector_317" d="M93.46 355.03L87.46 355.59C81.17 356.17 78.36 351.28 77.77 344.99L73.83 302.35C73.691 300.853 73.8482 299.344 74.2926 297.909C74.7371 296.473 75.4601 295.139 76.4203 293.983C77.3806 292.826 78.5592 291.871 79.889 291.17C81.2187 290.47 82.6734 290.038 84.17 289.9C85.6665 289.761 87.1758 289.918 88.6115 290.363C90.0472 290.807 91.3813 291.53 92.5375 292.49C93.6937 293.451 94.6493 294.629 95.3498 295.959C96.0503 297.289 96.4819 298.743 96.62 300.24L100.57 342.88C101.12 349.18 99.75 354.42 93.46 355.03Z" stroke="#4B4B4B" stroke-width="2" stroke-miterlimit="10"/>
<path id="Vector_318" d="M178.52 430.27L151.27 429.93V421.62L171.13 421.87C175.19 421.87 178.53 424.07 178.53 428.13L178.52 430.27Z" fill="#EAEAEA" stroke="#4B4B4B" stroke-width="2" stroke-linecap="round" stroke-linejoin="round"/>
<path id="Vector_319" d="M99.6001 389.79C116.34 402.12 148.36 426 154.15 430.38C161.84 436.2 174.15 421.8 168.84 416.96C167.04 415.31 165.84 414.16 165.84 414.16L161.9 386.42C160.6 379.65 156.22 374.71 150.43 370.97L138.18 362.72L89.1801 368.47C89.4001 368.67 88.6501 381.73 99.6001 389.79Z" fill="white"/>
<g id="Clip path group_3">
<mask id="mask2_12_37" style="mask-type:luminance" maskUnits="userSpaceOnUse" x="89" y="362" width="82" height="70">
<g id="clip-path-3">
<path id="Vector_320" d="M99.6001 389.79C116.34 402.12 148.36 426 154.15 430.38C161.84 436.2 174.15 421.8 168.84 416.96C167.04 415.31 165.84 414.16 165.84 414.16L161.9 386.42C160.6 379.65 156.22 374.71 150.43 370.97L138.18 362.72L89.1801 368.47C89.4001 368.67 88.6501 381.73 99.6001 389.79Z" fill="white"/>
</g>
</mask>
<g mask="url(#mask2_12_37)">
<g id="Group_3">
<path id="Vector_321" d="M150.81 401.21L148.46 394.07C147.53 391.261 145.858 388.755 143.62 386.819C141.383 384.883 138.664 383.587 135.75 383.07L130.22 382.07L135.14 384.91C139.003 387.129 142.161 390.395 144.25 394.33L145.43 396.54L150.81 401.21Z" fill="#EAEAEA"/>
<path id="Vector_322" d="M88.4 370.42L151.4 428.2L90.43 382.27L88.4 370.42Z" fill="#EAEAEA"/>
<path id="Vector_323" d="M167.4 416.25L128.73 382.42C134.73 382.56 142.07 389.09 144.07 395.42" stroke="#4A4A4A" stroke-width="1.25" stroke-linecap="round" stroke-linejoin="round"/>
</g>
</g>
</g>
<path id="Vector_324" d="M99.6001 389.79C116.34 402.12 148.36 426 154.15 430.38C161.84 436.2 174.15 421.8 168.84 416.96C167.04 415.31 165.84 414.16 165.84 414.16L161.9 386.42C160.6 379.65 156.22 374.71 150.43 370.97L138.18 362.72L89.1801 368.47C89.4001 368.67 88.6501 381.73 99.6001 389.79Z" stroke="#4B4B4B" stroke-width="2" stroke-linecap="round" stroke-linejoin="round"/>
<path id="Vector_325" d="M178.64 415.86L161.9 437.34L155.26 432.34L167.49 416.68C169.95 413.44 173.73 412.12 176.96 414.58L178.64 415.86Z" fill="#EAEAEA" stroke="#4B4B4B" stroke-width="2" stroke-linecap="round" stroke-linejoin="round"/>
<path id="Vector_326" d="M68.83 275.71C68.8843 276.194 69.0553 276.657 69.3283 277.059C69.6014 277.462 69.9683 277.792 70.3974 278.021C70.8265 278.251 71.3049 278.372 71.7914 278.376C72.2779 278.379 72.7579 278.264 73.19 278.04L83.57 300.15L86.05 296.84L73.63 277.76C74.158 277.364 74.5408 276.806 74.7191 276.17C74.8975 275.535 74.8614 274.859 74.6166 274.246C74.3717 273.633 73.9318 273.119 73.3647 272.781C72.7977 272.444 72.1353 272.303 71.48 272.38C71.0869 272.423 70.7063 272.544 70.36 272.735C70.0137 272.927 69.7086 273.184 69.4624 273.494C69.2161 273.803 69.0334 274.158 68.9249 274.539C68.8164 274.919 68.7841 275.317 68.83 275.71Z" fill="#FF0076"/>
<path id="Vector_327" d="M140.42 267.54C140.477 268.024 140.416 268.514 140.241 268.968C140.067 269.423 139.784 269.828 139.418 270.149C139.052 270.47 138.613 270.697 138.139 270.81C137.666 270.924 137.172 270.92 136.7 270.8L131.57 294.67L128.4 292.01L136.21 270.63C135.732 270.415 135.318 270.078 135.011 269.653C134.703 269.229 134.513 268.731 134.458 268.209C134.403 267.688 134.485 267.161 134.697 266.681C134.909 266.202 135.243 265.786 135.666 265.476C136.089 265.165 136.585 264.971 137.106 264.913C137.628 264.854 138.155 264.934 138.636 265.142C139.117 265.351 139.535 265.683 139.848 266.103C140.161 266.524 140.358 267.019 140.42 267.54Z" fill="#FF0076"/>
<path id="Vector_328" d="M62.06 268.78L60.31 256.89C60.2493 256.466 60.095 256.062 59.8584 255.705C59.6217 255.349 59.3086 255.05 58.9418 254.829C58.575 254.609 58.1638 254.473 57.7379 254.432C57.3121 254.391 56.8824 254.445 56.48 254.59L50.33 256.79C49.607 257.054 49.0179 257.594 48.6918 258.291C48.3657 258.988 48.3291 259.786 48.59 260.51L52.8 271.96L62.06 268.78Z" fill="white" stroke="#4B4B4B" stroke-width="1.25" stroke-linecap="round" stroke-linejoin="round"/>
<path id="Vector_329" d="M145.59 259.25L144.59 247.25C144.558 246.824 144.62 246.397 144.772 245.998C144.924 245.599 145.163 245.238 145.47 244.942C145.778 244.646 146.147 244.421 146.552 244.285C146.956 244.148 147.386 244.102 147.81 244.15L154.3 244.91C154.679 244.955 155.045 245.074 155.378 245.26C155.71 245.447 156.002 245.698 156.238 245.998C156.473 246.298 156.646 246.642 156.748 247.01C156.85 247.377 156.878 247.762 156.83 248.14L155.31 260.25L145.59 259.25Z" fill="white" stroke="#4B4B4B" stroke-width="1.25" stroke-linecap="round" stroke-linejoin="round"/>
<path id="Vector_330" d="M138.27 362.99L132.71 314.25L153.98 292.93L155.56 259.56L145.77 259.88L142.9 283.54L119.3 295.39L93.42 298.34L69.96 292.98L62.43 269.38L51.9 271.38L57.55 302.43L83.85 321.57L89.21 368.58L138.27 362.99Z" fill="white" stroke="#4B4B4B" stroke-width="2" stroke-linecap="round" stroke-linejoin="round"/>
<path id="Vector_331" d="M137.068 353.861L87.5791 359.508L88.6199 368.629L138.109 362.982L137.068 353.861Z" fill="#E9E9E9" stroke="#4B4B4B" stroke-width="1.25" stroke-linecap="round" stroke-linejoin="round"/>
<path id="Vector_332" d="M124.32 310.99L112.68 312.32C112.391 312.352 112.111 312.441 111.856 312.582C111.602 312.723 111.377 312.912 111.196 313.14C111.015 313.368 110.881 313.629 110.801 313.909C110.721 314.188 110.697 314.481 110.73 314.77L112.99 334.58C113.022 334.869 113.111 335.149 113.252 335.404C113.393 335.658 113.582 335.883 113.81 336.064C114.038 336.245 114.299 336.379 114.579 336.459C114.858 336.539 115.151 336.563 115.44 336.53L127.08 335.21C127.663 335.142 128.195 334.846 128.561 334.387C128.926 333.928 129.095 333.343 129.03 332.76L126.77 312.95C126.702 312.366 126.407 311.833 125.948 311.466C125.489 311.099 124.904 310.928 124.32 310.99ZM123.84 326.34L116.6 327.16L115.42 316.79L122.65 315.96L123.84 326.34Z" fill="#E9E9E9"/>
<path id="Vector_333" d="M124.294 311.016L112.669 312.341C111.451 312.479 110.576 313.58 110.715 314.798L112.971 334.6C113.11 335.818 114.21 336.693 115.428 336.554L127.053 335.23C128.271 335.091 129.146 333.991 129.007 332.772L126.751 312.971C126.612 311.752 125.512 310.877 124.294 311.016Z" stroke="#4B4B4B" stroke-width="1.25" stroke-linecap="round" stroke-linejoin="round"/>
<path id="Vector_334" d="M122.678 315.939L115.444 316.765L116.628 327.137L123.861 326.312L122.678 315.939Z" stroke="#4B4B4B" stroke-width="1.25" stroke-linecap="round" stroke-linejoin="round"/>
<path id="Vector_335" d="M147.99 296.61C147.789 297.077 147.782 297.604 147.969 298.077C148.157 298.549 148.524 298.928 148.99 299.13L149.28 299.26C150.385 299.742 151.636 299.767 152.76 299.33C153.884 298.894 154.789 298.031 155.28 296.93L157.58 291.72C158.069 290.601 158.096 289.335 157.656 288.196C157.216 287.058 156.344 286.139 155.23 285.64L154.94 285.51C154.711 285.408 154.463 285.353 154.212 285.349C153.961 285.344 153.712 285.39 153.479 285.483C153.246 285.576 153.034 285.715 152.856 285.891C152.677 286.068 152.536 286.278 152.44 286.51L147.99 296.61Z" fill="#E9E9E9" stroke="#4B4B4B" stroke-width="1.25" stroke-linecap="round" stroke-linejoin="round"/>
<path id="Vector_336" d="M66.48 304.5C66.7829 304.905 66.913 305.413 66.8418 305.914C66.7705 306.414 66.5038 306.866 66.1 307.17L65.85 307.36C65.3706 307.726 64.8234 307.992 64.2402 308.145C63.657 308.298 63.0493 308.333 62.4522 308.25C61.8552 308.166 61.2807 307.965 60.7619 307.657C60.2431 307.35 59.7905 306.943 59.43 306.46L56.02 301.9C55.2789 300.923 54.9554 299.693 55.1204 298.478C55.2853 297.263 55.9253 296.164 56.9 295.42L57.16 295.23C57.3577 295.079 57.5835 294.968 57.8242 294.905C58.0649 294.842 58.3158 294.827 58.5623 294.861C58.8089 294.896 59.0461 294.979 59.2603 295.105C59.4744 295.232 59.6613 295.4 59.81 295.6L66.48 304.5Z" fill="#E9E9E9" stroke="#4B4B4B" stroke-width="1.25" stroke-linecap="round" stroke-linejoin="round"/>
<path id="Vector_337" d="M89.24 325.48L83.85 321.57" stroke="#4B4B4B" stroke-width="1.25" stroke-linecap="round" stroke-linejoin="round"/>
<path id="Vector_338" d="M129.9 273.57C129.95 270.936 129.481 268.318 128.519 265.865C127.557 263.413 126.121 261.174 124.294 259.277C122.466 257.379 120.282 255.861 117.868 254.808C115.453 253.755 112.854 253.188 110.22 253.14L102.15 252.99C96.8329 252.891 91.6941 254.907 87.8631 258.596C84.0321 262.284 81.8225 267.343 81.72 272.66L81.22 299.36C88.32 313.5 123.22 312.73 129.4 300.27L129.9 273.57Z" stroke="#4B4B4B" stroke-width="1.25" stroke-linecap="round" stroke-linejoin="round"/>
<path id="Vector_339" d="M92.25 293.784L92.5691 276.857C92.6213 274.085 93.7722 271.449 95.7685 269.526C97.7649 267.604 100.443 266.553 103.214 266.605L110.833 266.749C113.601 266.801 116.235 267.951 118.156 269.945C120.077 271.94 121.126 274.616 121.074 277.384L120.755 294.321C120.703 297.09 119.553 299.725 117.559 301.648C115.565 303.57 112.889 304.622 110.12 304.572L102.521 304.429C101.147 304.407 99.7906 304.114 98.5299 303.567C97.2693 303.019 96.1291 302.228 95.1748 301.239C94.2205 300.25 93.4709 299.082 92.969 297.803C92.4671 296.524 92.2227 295.158 92.25 293.784Z" fill="white"/>
<path id="Vector_340" d="M92.25 293.784L92.5691 276.857C92.6213 274.085 93.7722 271.449 95.7685 269.526C97.7649 267.604 100.443 266.553 103.214 266.605L110.833 266.749C113.601 266.801 116.235 267.951 118.156 269.945C120.077 271.94 121.126 274.616 121.074 277.384L120.755 294.321C120.703 297.09 119.553 299.725 117.559 301.648C115.565 303.57 112.889 304.622 110.12 304.572L102.521 304.429C101.147 304.407 99.7906 304.114 98.5299 303.567C97.2693 303.019 96.1291 302.228 95.1748 301.239C94.2205 300.25 93.4709 299.082 92.969 297.803C92.4671 296.524 92.2227 295.158 92.25 293.784Z" stroke="#4B4B4B" stroke-width="2" stroke-linecap="round" stroke-linejoin="round"/>
<path id="Vector_341" d="M123.57 270.01L123.43 277.44C123.387 279.863 122.504 282.196 120.93 284.04L121 280.24C121.16 271.83 115.14 269 111.51 272.24C110.277 273.343 108.674 273.942 107.02 273.918C105.365 273.894 103.78 273.249 102.58 272.11C98.77 268.5 92.67 271.75 92.52 279.67L92.47 282.36C91.4583 280.681 90.945 278.749 90.99 276.79L91.13 269.35C91.23 263.58 96 258.05 101.73 258.16L113.38 258.38C119.13 258.53 123.67 264.23 123.57 270.01Z" fill="#E9E9E9"/>
<path id="Vector_342" d="M123.57 270.01L123.43 277.44C123.387 279.863 122.504 282.196 120.93 284.04L121 280.24C121.16 271.83 115.14 269 111.51 272.24C110.277 273.343 108.674 273.942 107.02 273.918C105.365 273.894 103.78 273.249 102.58 272.11C98.77 268.5 92.67 271.75 92.52 279.67L92.47 282.36C91.4583 280.681 90.945 278.749 90.99 276.79L91.13 269.35C91.23 263.58 96 258.05 101.73 258.16L113.38 258.38C119.13 258.53 123.67 264.23 123.57 270.01Z" stroke="#4B4B4B" stroke-width="2" stroke-linecap="round" stroke-linejoin="round"/>
<path id="Vector_343" d="M105.13 286.83C105.102 285.956 104.74 285.126 104.118 284.511C103.496 283.897 102.661 283.545 101.787 283.528C100.912 283.512 100.065 283.832 99.42 284.422C98.7747 285.012 98.381 285.828 98.32 286.7" stroke="#4B4B4B" stroke-width="0.75" stroke-linecap="round" stroke-linejoin="round"/>
<path id="Vector_344" d="M116.99 287.06C116.999 286.614 116.919 286.17 116.756 285.754C116.593 285.338 116.35 284.959 116.04 284.637C115.73 284.315 115.36 284.057 114.951 283.879C114.542 283.7 114.102 283.604 113.655 283.595C113.209 283.586 112.765 283.666 112.349 283.829C111.933 283.992 111.554 284.235 111.232 284.545C110.91 284.855 110.652 285.225 110.474 285.634C110.295 286.043 110.199 286.484 110.19 286.93" stroke="#4B4B4B" stroke-width="0.75" stroke-linecap="round" stroke-linejoin="round"/>
<path id="Vector_345" d="M101.59 297.15C101.59 297.15 109.52 300.46 114.53 294.94" stroke="#4B4B4B" stroke-width="0.75" stroke-linecap="round" stroke-linejoin="round"/>
<path id="Vector_346" d="M105.13 286.83C105.102 285.956 104.74 285.126 104.118 284.511C103.496 283.897 102.661 283.545 101.787 283.528C100.912 283.512 100.065 283.832 99.42 284.422C98.7747 285.012 98.381 285.828 98.32 286.7" stroke="#4A4A4A" stroke-width="1.25" stroke-linecap="round" stroke-linejoin="round"/>
<path id="Vector_347" d="M116.99 287.06C116.999 286.614 116.919 286.17 116.756 285.754C116.593 285.338 116.35 284.959 116.04 284.637C115.73 284.315 115.36 284.057 114.951 283.879C114.542 283.7 114.102 283.604 113.655 283.595C113.209 283.586 112.765 283.666 112.349 283.829C111.933 283.992 111.554 284.235 111.232 284.545C110.91 284.855 110.652 285.225 110.474 285.634C110.295 286.043 110.199 286.484 110.19 286.93" stroke="#4A4A4A" stroke-width="1.25" stroke-linecap="round" stroke-linejoin="round"/>
<path id="Vector_348" d="M101.59 297.15C101.59 297.15 109.52 300.46 114.53 294.94" stroke="#4A4A4A" stroke-width="1.25" stroke-linecap="round" stroke-linejoin="round"/>
<path id="Vector_349" d="M125.964 348.461L124.841 348.589C123.502 348.741 122.541 349.951 122.694 351.29L124.937 370.952C125.09 372.291 126.299 373.252 127.638 373.1L128.761 372.971C130.1 372.819 131.061 371.609 130.909 370.271L128.665 350.608C128.512 349.269 127.303 348.308 125.964 348.461Z" fill="#E9E9E9" stroke="#4B4B4B" stroke-width="1.25" stroke-linecap="round" stroke-linejoin="round"/>
<path id="Vector_350" d="M98.6241 351.59L97.5014 351.718C96.1625 351.871 95.2009 353.08 95.3537 354.419L97.5974 374.082C97.7502 375.42 98.9595 376.382 100.298 376.229L101.421 376.101C102.76 375.948 103.721 374.739 103.569 373.4L101.325 353.738C101.172 352.399 99.963 351.437 98.6241 351.59Z" fill="#E9E9E9" stroke="#4B4B4B" stroke-width="1.25" stroke-linecap="round" stroke-linejoin="round"/>
</g>
<g id="bull">
<path id="Vector_351" d="M312.23 373.75L281.23 408.75L273.23 422.25L275.23 427.75H253.23L294.23 365.25L312.23 373.75Z" fill="#EAEAEA" stroke="#4B4B4B" stroke-width="1.25" stroke-linecap="round" stroke-linejoin="round"/>
<path id="Vector_352" d="M522.73 282.75L543.23 284.25L554.73 282.25L538.23 295.75L524.73 292.75L522.73 282.75Z" fill="#EAEAEA" stroke="#4B4B4B" stroke-width="1.25" stroke-linecap="round" stroke-linejoin="round"/>
<path id="Vector_353" d="M434.73 394.42L439.23 422.25L445.23 426.25H426.98L419.73 408.45L434.73 394.42Z" fill="#EAEAEA" stroke="#4B4B4B" stroke-width="1.25" stroke-linecap="round" stroke-linejoin="round"/>
<path id="Vector_354" d="M237.73 435.25L259.73 392.25L275.73 337.75L258.73 292.25L267.23 258.75H272.73L272.23 281.75L266.23 284.75V291.75L284.73 323.75L352.23 305.25L383.73 305.75L489.23 272.75L531.23 285.25L534.73 290.75L558.73 298.75L541.23 302.25L523.23 300.25L520.23 314.25L515.23 328.25V347L493.73 350.25L474.23 336.25L457.23 388.25L425.23 413.25L353.73 397.25L302.23 376.75L272.73 406.75L257.23 428.75L258.73 435.25H237.73Z" fill="white" stroke="#4B4B4B" stroke-width="2" stroke-linecap="round" stroke-linejoin="round"/>
<g id="Vector_355">
<path d="M408.73 401.25L418.73 435.25H445.23L435.73 422.75L431.23 401.25" fill="white"/>
<path d="M408.73 401.25L418.73 435.25H445.23L435.73 422.75L431.23 401.25" stroke="#4B4B4B" stroke-width="2" stroke-linecap="round" stroke-linejoin="round"/>
</g>
<path id="Vector_356" d="M509.73 309.25L510.23 312.75" stroke="#4B4B4B" stroke-width="1.25" stroke-linecap="round" stroke-linejoin="round"/>
</g>
</g>
<defs>
<clipPath id="clip0_12_37">
<rect width="1478" height="437" fill="white"/>
</clipPath>
</defs>
</svg>
