<svg width="184" height="184" viewBox="0 0 184 184" fill="none" xmlns="http://www.w3.org/2000/svg">
<path fill-rule="evenodd" clip-rule="evenodd" d="M103.48 2.75538C96.1297 -0.289439 87.8703 -0.289442 80.5195 2.75537L37.0125 20.7766C29.6616 23.8214 23.8214 29.6616 20.7766 37.0125L2.75538 80.5195C-0.289439 87.8703 -0.289442 96.1297 2.75537 103.48L20.7766 146.988C23.8214 154.338 29.6616 160.179 37.0125 163.223L80.5195 181.245C87.8703 184.289 96.1297 184.289 103.48 181.245L146.988 163.223C154.338 160.179 160.179 154.338 163.223 146.988L181.245 103.48C184.289 96.1297 184.289 87.8704 181.245 80.5195L163.223 37.0125C160.179 29.6616 154.338 23.8214 146.988 20.7766L103.48 2.75538ZM87.3355 149.5C87.3355 146.827 89.4195 144.662 92 144.662C94.5805 144.662 96.6645 146.827 96.6645 149.5C96.6645 152.166 94.5805 154.331 92 154.331C89.4195 154.331 87.3355 152.166 87.3355 149.5ZM97 118.127V135.951C102.264 138.035 106 143.314 106 149.5C106 157.504 99.7349 164 92 164C84.265 164 78 157.504 78 149.5C78 143.314 81.7361 138.035 87 135.951V108.09C86.2011 108.662 85.2183 109 84.1562 109H64.7674C54.9509 109 47 101.164 47 91.5033V83.0479C41.7388 80.963 38 75.683 38 69.5034C38 61.4941 44.2701 55 51.9967 55C59.7299 55 66 61.4941 66 69.5034C66 75.8033 62.1141 81.1684 56.6876 83.1661V91.5033C56.6876 95.8925 60.3103 99.4533 64.7674 99.4533H84.1562C85.2183 99.4533 86.2011 99.7909 87 100.363V81.7394C87 79.1241 89.2339 77 92 77C94.7591 77 97 79.1241 97 81.7394V110.327C97.7703 109.777 98.7114 109.453 99.7285 109.453H118.656C123.007 109.453 126.536 105.893 126.536 101.503V93.1284C120.972 91.1015 117 85.7641 117 79.5034C117 71.494 123.489 65 131.5 65C139.511 65 146 71.494 146 79.5034C146 85.9366 141.807 91.395 136 93.2884V101.503C136 111.164 128.232 119 118.656 119H99.7285C98.7114 119 97.7703 118.677 97 118.127ZM53.1678 74.1801C55.1806 73.6423 56.6667 71.7508 56.6667 69.5034C56.6667 66.8314 54.5766 64.6667 51.9967 64.6667C49.4234 64.6667 47.3333 66.8314 47.3333 69.5034C47.3333 71.6956 48.7473 73.5492 50.6812 74.1381C51.0535 74.0479 51.4429 74 51.8438 74C52.3031 74 52.7472 74.0628 53.1678 74.1801ZM132.63 84.2002C134.752 83.6909 136.331 81.7797 136.331 79.5034C136.331 76.8314 134.166 74.6667 131.5 74.6667C128.827 74.6667 126.662 76.8314 126.662 79.5034C126.662 81.6959 128.127 83.5497 130.135 84.1383C130.499 84.048 130.88 84 131.272 84C131.744 84 132.2 84.07 132.63 84.2002ZM92 36.3355C89.4195 36.3355 87.3355 38.426 87.3355 41C87.3355 43.5805 89.4195 45.671 92 45.671C94.5805 45.671 96.6645 43.5805 96.6645 41C96.6645 38.426 94.5805 36.3355 92 36.3355ZM78 41C78 33.2716 84.265 27 92 27C99.7349 27 106 33.2716 106 41C106 46.9731 102.264 52.0697 97 54.0816V66.8824C97 69.4977 94.7591 71.6218 92 71.6218C89.2339 71.6218 87 69.4977 87 66.8824V54.0816C81.7361 52.0697 78 46.9731 78 41Z" fill="#ED8936"/>
</svg>
