<svg width="388" height="388" viewBox="0 0 388 388" fill="none" xmlns="http://www.w3.org/2000/svg">
<g id="tokenomics" filter="url(#filter0_d_5_17)">
<g id="Public_Supply_59">
<path id="Ellipse 1" d="M306.527 291.353C310.702 294.968 311.179 301.308 307.309 305.249C293.083 319.737 276.199 331.398 257.547 339.576C235.837 349.095 212.279 353.655 188.585 352.924C164.891 352.194 141.659 346.191 120.576 335.353C99.4943 324.516 81.0929 309.115 66.7108 290.272C52.3286 271.428 42.3274 249.616 37.4346 226.422C32.5418 203.227 32.8804 179.234 38.4258 156.187C43.9713 133.14 54.5841 111.619 69.4922 93.1889C82.3007 77.3547 98.003 64.1444 115.731 54.2442C120.553 51.5513 126.543 53.683 128.928 58.6642L154.735 112.553C157.121 117.535 154.973 123.456 150.329 126.445C143.21 131.029 136.848 136.728 131.496 143.344C124.042 152.559 118.736 163.32 115.963 174.844C113.19 186.367 113.021 198.364 115.467 209.961C117.914 221.558 122.914 232.464 130.105 241.886C137.296 251.307 146.497 259.008 157.038 264.427C167.579 269.846 179.196 272.847 191.043 273.212C202.889 273.577 214.669 271.297 225.523 266.538C233.317 263.121 240.493 258.488 246.792 252.83C250.901 249.139 257.179 248.629 261.354 252.244L306.527 291.353Z" fill="#7BC4A5"/>
<path id="59%" d="M72.6406 244.199C71.58 244.199 70.6378 244.007 69.8139 243.624C68.9901 243.24 68.339 242.712 67.8608 242.04C67.3873 241.367 67.1411 240.596 67.1222 239.724H70.5312C70.5597 240.259 70.7775 240.69 71.1847 241.017C71.5919 241.339 72.0772 241.5 72.6406 241.5C73.081 241.5 73.4716 241.403 73.8125 241.209C74.1534 241.015 74.4209 240.742 74.6151 240.392C74.8092 240.037 74.9039 239.63 74.8991 239.17C74.9039 238.702 74.8068 238.292 74.608 237.942C74.4138 237.591 74.1439 237.319 73.7983 237.125C73.4574 236.926 73.0644 236.827 72.6193 236.827C72.1979 236.822 71.7978 236.914 71.419 237.104C71.045 237.293 70.7609 237.551 70.5668 237.878L67.4631 237.295L68.0952 229.455H77.4276V232.288H70.9858L70.652 235.719H70.7372C70.9787 235.316 71.367 234.985 71.902 234.724C72.4418 234.459 73.0549 234.327 73.7415 234.327C74.6127 234.327 75.3892 234.53 76.071 234.938C76.7576 235.34 77.2973 235.899 77.6903 236.614C78.0881 237.329 78.2869 238.148 78.2869 239.071C78.2869 240.07 78.0502 240.955 77.5767 241.727C77.108 242.499 76.4498 243.105 75.6023 243.545C74.7595 243.981 73.7723 244.199 72.6406 244.199ZM85.6928 229.256C86.4883 229.256 87.2482 229.386 87.9727 229.646C88.6971 229.902 89.3434 230.312 89.9116 230.875C90.4798 231.434 90.9272 232.17 91.2539 233.084C91.5806 233.998 91.744 235.113 91.744 236.429C91.7487 237.641 91.6067 238.728 91.3178 239.689C91.029 240.645 90.6147 241.46 90.0749 242.132C89.5399 242.804 88.896 243.318 88.1431 243.673C87.3903 244.024 86.5498 244.199 85.6218 244.199C84.5991 244.199 83.6971 244.002 82.9158 243.609C82.1393 243.212 81.5167 242.677 81.0479 242.004C80.5839 241.332 80.3069 240.579 80.217 239.746H83.6758C83.7847 240.229 84.0143 240.593 84.3647 240.839C84.7151 241.081 85.1341 241.202 85.6218 241.202C86.512 241.202 87.1772 240.816 87.6175 240.044C88.0579 239.272 88.2781 238.223 88.2781 236.898H88.1928C87.9892 237.333 87.7004 237.707 87.3263 238.02C86.957 238.332 86.5285 238.571 86.0408 238.737C85.5531 238.903 85.0394 238.986 84.4996 238.986C83.6284 238.986 82.859 238.787 82.1914 238.389C81.5285 237.991 81.0077 237.445 80.6289 236.749C80.2549 236.053 80.0655 235.257 80.0607 234.362C80.056 233.358 80.2904 232.473 80.7638 231.706C81.2373 230.934 81.8978 230.333 82.7454 229.902C83.5929 229.466 84.5754 229.251 85.6928 229.256ZM85.7141 231.955C85.2785 231.955 84.8903 232.056 84.5494 232.26C84.2132 232.464 83.948 232.738 83.7539 233.084C83.5598 233.429 83.4651 233.818 83.4698 234.249C83.4746 234.679 83.5716 235.068 83.761 235.413C83.9551 235.759 84.2179 236.034 84.5494 236.237C84.8855 236.441 85.2691 236.543 85.6999 236.543C86.0219 236.543 86.3202 236.483 86.5948 236.365C86.8694 236.247 87.1085 236.083 87.3121 235.875C87.5157 235.662 87.6744 235.416 87.788 235.136C87.9064 234.857 87.9632 234.559 87.9585 234.241C87.9537 233.82 87.8543 233.437 87.6602 233.091C87.466 232.745 87.1985 232.471 86.8576 232.267C86.5214 232.059 86.1403 231.955 85.7141 231.955ZM101.82 241.273V240.506C101.82 239.909 101.948 239.357 102.204 238.851C102.464 238.344 102.841 237.937 103.333 237.629C103.826 237.321 104.427 237.168 105.137 237.168C105.862 237.168 106.47 237.321 106.962 237.629C107.46 237.932 107.834 238.337 108.085 238.844C108.34 239.346 108.468 239.9 108.468 240.506V241.273C108.468 241.869 108.34 242.421 108.085 242.928C107.829 243.434 107.452 243.841 106.955 244.149C106.458 244.457 105.852 244.611 105.137 244.611C104.417 244.611 103.811 244.457 103.319 244.149C102.826 243.841 102.452 243.434 102.197 242.928C101.946 242.421 101.82 241.869 101.82 241.273ZM104.086 240.506V241.273C104.086 241.576 104.159 241.867 104.306 242.146C104.458 242.426 104.735 242.565 105.137 242.565C105.549 242.565 105.826 242.43 105.968 242.161C106.11 241.886 106.181 241.59 106.181 241.273V240.506C106.181 240.188 106.112 239.89 105.975 239.611C105.843 239.327 105.563 239.185 105.137 239.185C104.739 239.185 104.465 239.327 104.313 239.611C104.162 239.89 104.086 240.188 104.086 240.506ZM94.2777 232.949V232.182C94.2777 231.576 94.4079 231.022 94.6683 230.52C94.9335 230.013 95.3123 229.608 95.8047 229.305C96.2971 228.998 96.8937 228.844 97.5945 228.844C98.3189 228.844 98.9273 228.998 99.4197 229.305C99.9169 229.608 100.293 230.013 100.549 230.52C100.805 231.022 100.933 231.576 100.933 232.182V232.949C100.933 233.555 100.802 234.109 100.542 234.611C100.286 235.113 99.9098 235.513 99.4126 235.811C98.9155 236.109 98.3094 236.259 97.5945 236.259C96.8795 236.259 96.2734 236.107 95.7763 235.804C95.2839 235.501 94.9098 235.098 94.6541 234.597C94.4032 234.095 94.2777 233.545 94.2777 232.949ZM96.5646 232.182V232.949C96.5646 233.266 96.638 233.562 96.7848 233.837C96.9363 234.107 97.2062 234.241 97.5945 234.241C98.0111 234.241 98.2881 234.107 98.4254 233.837C98.5675 233.562 98.6385 233.266 98.6385 232.949V232.182C98.6385 231.865 98.5722 231.566 98.4396 231.287C98.3071 231.003 98.0253 230.861 97.5945 230.861C97.1967 230.861 96.9245 231.005 96.7777 231.294C96.6357 231.583 96.5646 231.879 96.5646 232.182ZM95.3501 244L105.35 229.455H107.289L97.2891 244H95.3501Z" fill="white"/>
</g>
<g id="Developer_Supply_5">
<path id="Ellipse 2" d="M132.833 56.8628C130.592 51.8151 132.857 45.8747 138.036 43.9542C147.452 40.4617 157.178 37.8664 167.083 36.2029C172.529 35.2882 177.454 39.3099 178.025 44.8031L184.21 104.232C184.782 109.725 180.768 114.579 175.39 115.834C173.749 116.216 172.12 116.651 170.507 117.136C165.219 118.729 159.321 116.52 157.079 111.472L132.833 56.8628Z" fill="#DB9494"/>
<path id="5%" d="M155.641 85.1989C154.58 85.1989 153.638 85.0071 152.814 84.6236C151.99 84.2401 151.339 83.7121 150.861 83.0398C150.387 82.3674 150.141 81.5956 150.122 80.7244H153.531C153.56 81.2595 153.777 81.6903 154.185 82.017C154.592 82.339 155.077 82.5 155.641 82.5C156.081 82.5 156.472 82.4029 156.812 82.2088C157.153 82.0147 157.421 81.7424 157.615 81.392C157.809 81.0369 157.904 80.6297 157.899 80.1705C157.904 79.7017 157.807 79.2921 157.608 78.9418C157.414 78.5914 157.144 78.3191 156.798 78.125C156.457 77.9261 156.064 77.8267 155.619 77.8267C155.198 77.822 154.798 77.9143 154.419 78.1037C154.045 78.2931 153.761 78.5511 153.567 78.8778L150.463 78.2955L151.095 70.4545H160.428V73.2884H153.986L153.652 76.7188H153.737C153.979 76.3163 154.367 75.9848 154.902 75.7244C155.442 75.4593 156.055 75.3267 156.741 75.3267C157.613 75.3267 158.389 75.5303 159.071 75.9375C159.758 76.34 160.297 76.8987 160.69 77.6136C161.088 78.3286 161.287 79.1477 161.287 80.071C161.287 81.0701 161.05 81.9555 160.577 82.7273C160.108 83.4991 159.45 84.1051 158.602 84.5455C157.759 84.9811 156.772 85.1989 155.641 85.1989ZM171.363 82.2727V81.5057C171.363 80.9091 171.491 80.3575 171.747 79.8509C172.007 79.3442 172.384 78.937 172.876 78.6293C173.368 78.3215 173.97 78.1676 174.68 78.1676C175.404 78.1676 176.013 78.3215 176.505 78.6293C177.002 78.9323 177.377 79.3371 177.627 79.8438C177.883 80.3456 178.011 80.8996 178.011 81.5057V82.2727C178.011 82.8693 177.883 83.4209 177.627 83.9276C177.372 84.4342 176.995 84.8414 176.498 85.1491C176.001 85.4569 175.395 85.6108 174.68 85.6108C173.96 85.6108 173.354 85.4569 172.862 85.1491C172.369 84.8414 171.995 84.4342 171.74 83.9276C171.489 83.4209 171.363 82.8693 171.363 82.2727ZM173.629 81.5057V82.2727C173.629 82.5758 173.702 82.867 173.849 83.1463C174.001 83.4257 174.278 83.5653 174.68 83.5653C175.092 83.5653 175.369 83.4304 175.511 83.1605C175.653 82.8859 175.724 82.59 175.724 82.2727V81.5057C175.724 81.1884 175.655 80.8902 175.518 80.6108C175.386 80.3267 175.106 80.1847 174.68 80.1847C174.282 80.1847 174.008 80.3267 173.856 80.6108C173.705 80.8902 173.629 81.1884 173.629 81.5057ZM163.821 73.9489V73.1818C163.821 72.5758 163.951 72.0218 164.211 71.5199C164.476 71.0133 164.855 70.6084 165.348 70.3054C165.84 69.9976 166.437 69.8438 167.137 69.8438C167.862 69.8438 168.47 69.9976 168.963 70.3054C169.46 70.6084 169.836 71.0133 170.092 71.5199C170.348 72.0218 170.475 72.5758 170.475 73.1818V73.9489C170.475 74.5549 170.345 75.1089 170.085 75.6108C169.829 76.1127 169.453 76.5128 168.956 76.8111C168.458 77.1094 167.852 77.2585 167.137 77.2585C166.422 77.2585 165.816 77.107 165.319 76.804C164.827 76.5009 164.453 76.0985 164.197 75.5966C163.946 75.0947 163.821 74.5455 163.821 73.9489ZM166.108 73.1818V73.9489C166.108 74.2661 166.181 74.562 166.328 74.8366C166.479 75.1065 166.749 75.2415 167.137 75.2415C167.554 75.2415 167.831 75.1065 167.968 74.8366C168.11 74.562 168.181 74.2661 168.181 73.9489V73.1818C168.181 72.8646 168.115 72.5663 167.983 72.2869C167.85 72.0028 167.568 71.8608 167.137 71.8608C166.74 71.8608 166.467 72.0052 166.321 72.294C166.179 72.5829 166.108 72.8788 166.108 73.1818ZM164.893 85L174.893 70.4545H176.832L166.832 85H164.893Z" fill="white"/>
</g>
<g id="Founder_8">
<path id="Ellipse 3" d="M182.938 44.3736C182.548 38.8645 186.7 34.0493 192.222 34.0051C212.339 33.8439 232.305 37.49 251.066 44.7506C256.217 46.7439 258.399 52.7157 256.087 57.7313L231.073 111.993C228.761 117.009 222.832 119.135 217.567 117.468C211.175 115.445 204.553 114.236 197.859 113.869C192.344 113.567 187.55 109.483 187.159 103.974L182.938 44.3736Z" fill="#D1D976"/>
<path id="8%" d="M210.754 80.1989C209.623 80.1989 208.612 80.0189 207.722 79.6591C206.836 79.2945 206.14 78.8021 205.634 78.1818C205.132 77.5568 204.881 76.8513 204.881 76.0653C204.881 75.464 205.025 74.9124 205.314 74.4105C205.603 73.9086 205.993 73.492 206.486 73.1605C206.983 72.8243 207.537 72.6089 208.148 72.5142V72.4006C207.348 72.2538 206.692 71.8821 206.18 71.2855C205.674 70.6889 205.42 69.9905 205.42 69.1903C205.42 68.4328 205.65 67.758 206.109 67.1662C206.573 66.5743 207.205 66.108 208.006 65.767C208.811 65.4261 209.727 65.2557 210.754 65.2557C211.782 65.2557 212.696 65.4261 213.496 65.767C214.301 66.108 214.933 66.5743 215.392 67.1662C215.856 67.758 216.088 68.4328 216.088 69.1903C216.088 69.9953 215.83 70.696 215.314 71.2926C214.803 71.8845 214.152 72.2538 213.361 72.4006V72.5142C213.967 72.6089 214.516 72.8243 215.009 73.1605C215.506 73.492 215.899 73.9086 216.188 74.4105C216.481 74.9124 216.628 75.464 216.628 76.0653C216.628 76.8513 216.375 77.5568 215.868 78.1818C215.361 78.8021 214.665 79.2945 213.78 79.6591C212.899 80.0189 211.891 80.1989 210.754 80.1989ZM210.754 77.706C211.185 77.706 211.564 77.6255 211.891 77.4645C212.217 77.2988 212.473 77.0691 212.658 76.7756C212.847 76.482 212.942 76.1506 212.942 75.7812C212.942 75.4025 212.847 75.0663 212.658 74.7727C212.468 74.4792 212.208 74.2495 211.876 74.0838C211.55 73.9134 211.176 73.8281 210.754 73.8281C210.338 73.8281 209.964 73.9134 209.632 74.0838C209.301 74.2495 209.04 74.4792 208.851 74.7727C208.661 75.0663 208.567 75.4025 208.567 75.7812C208.567 76.1506 208.659 76.482 208.844 76.7756C209.033 77.0644 209.291 77.2917 209.618 77.4574C209.949 77.6231 210.328 77.706 210.754 77.706ZM210.754 71.3494C211.124 71.3494 211.45 71.2737 211.734 71.1222C212.023 70.9706 212.248 70.7599 212.409 70.4901C212.575 70.2202 212.658 69.9148 212.658 69.5739C212.658 69.233 212.575 68.9323 212.409 68.6719C212.248 68.4115 212.026 68.2079 211.741 68.0611C211.457 67.9096 211.128 67.8338 210.754 67.8338C210.385 67.8338 210.056 67.9096 209.767 68.0611C209.478 68.2079 209.253 68.4115 209.092 68.6719C208.931 68.9323 208.851 69.233 208.851 69.5739C208.851 69.9148 208.931 70.2202 209.092 70.4901C209.258 70.7552 209.485 70.9659 209.774 71.1222C210.063 71.2737 210.39 71.3494 210.754 71.3494ZM226.734 77.2727V76.5057C226.734 75.9091 226.862 75.3575 227.118 74.8509C227.378 74.3442 227.755 73.937 228.247 73.6293C228.74 73.3215 229.341 73.1676 230.051 73.1676C230.776 73.1676 231.384 73.3215 231.876 73.6293C232.374 73.9323 232.748 74.3371 232.999 74.8438C233.254 75.3456 233.382 75.8996 233.382 76.5057V77.2727C233.382 77.8693 233.254 78.4209 232.999 78.9276C232.743 79.4342 232.366 79.8414 231.869 80.1491C231.372 80.4569 230.766 80.6108 230.051 80.6108C229.331 80.6108 228.725 80.4569 228.233 80.1491C227.741 79.8414 227.366 79.4342 227.111 78.9276C226.86 78.4209 226.734 77.8693 226.734 77.2727ZM229 76.5057V77.2727C229 77.5758 229.073 77.867 229.22 78.1463C229.372 78.4257 229.649 78.5653 230.051 78.5653C230.463 78.5653 230.74 78.4304 230.882 78.1605C231.024 77.8859 231.095 77.59 231.095 77.2727V76.5057C231.095 76.1884 231.027 75.8902 230.889 75.6108C230.757 75.3267 230.477 75.1847 230.051 75.1847C229.653 75.1847 229.379 75.3267 229.227 75.6108C229.076 75.8902 229 76.1884 229 76.5057ZM219.192 68.9489V68.1818C219.192 67.5758 219.322 67.0218 219.582 66.5199C219.848 66.0133 220.226 65.6084 220.719 65.3054C221.211 64.9976 221.808 64.8438 222.509 64.8438C223.233 64.8438 223.841 64.9976 224.334 65.3054C224.831 65.6084 225.207 66.0133 225.463 66.5199C225.719 67.0218 225.847 67.5758 225.847 68.1818V68.9489C225.847 69.5549 225.716 70.1089 225.456 70.6108C225.2 71.1127 224.824 71.5128 224.327 71.8111C223.83 72.1094 223.223 72.2585 222.509 72.2585C221.794 72.2585 221.188 72.107 220.69 71.804C220.198 71.5009 219.824 71.0985 219.568 70.5966C219.317 70.0947 219.192 69.5455 219.192 68.9489ZM221.479 68.1818V68.9489C221.479 69.2661 221.552 69.562 221.699 69.8366C221.85 70.1065 222.12 70.2415 222.509 70.2415C222.925 70.2415 223.202 70.1065 223.339 69.8366C223.482 69.562 223.553 69.2661 223.553 68.9489V68.1818C223.553 67.8646 223.486 67.5663 223.354 67.2869C223.221 67.0028 222.939 66.8608 222.509 66.8608C222.111 66.8608 221.839 67.0052 221.692 67.294C221.55 67.5829 221.479 67.8788 221.479 68.1818ZM220.264 80L230.264 65.4545H232.203L222.203 80H220.264Z" fill="white"/>
</g>
<g id="Play_Earn_5">
<path id="Ellipse 4" d="M258.948 59.0871C261.366 54.1216 267.369 52.0289 272.174 54.753C280.91 59.707 289.16 65.4751 296.812 71.9805C301.019 75.5578 301.114 81.915 297.281 85.8903L255.803 128.898C251.969 132.874 245.671 132.93 241.247 129.623C239.898 128.614 238.517 127.649 237.106 126.727C232.482 123.708 230.373 117.773 232.791 112.807L258.948 59.0871Z" fill="#00AC97"/>
<path id="5%_2" d="M255.641 104.199C254.58 104.199 253.638 104.007 252.814 103.624C251.99 103.24 251.339 102.712 250.861 102.04C250.387 101.367 250.141 100.596 250.122 99.7244H253.531C253.56 100.259 253.777 100.69 254.185 101.017C254.592 101.339 255.077 101.5 255.641 101.5C256.081 101.5 256.472 101.403 256.812 101.209C257.153 101.015 257.421 100.742 257.615 100.392C257.809 100.037 257.904 99.6297 257.899 99.1705C257.904 98.7017 257.807 98.2921 257.608 97.9418C257.414 97.5914 257.144 97.3191 256.798 97.125C256.457 96.9261 256.064 96.8267 255.619 96.8267C255.198 96.822 254.798 96.9143 254.419 97.1037C254.045 97.2931 253.761 97.5511 253.567 97.8778L250.463 97.2955L251.095 89.4545H260.428V92.2884H253.986L253.652 95.7188H253.737C253.979 95.3163 254.367 94.9848 254.902 94.7244C255.442 94.4593 256.055 94.3267 256.741 94.3267C257.613 94.3267 258.389 94.5303 259.071 94.9375C259.758 95.34 260.297 95.8987 260.69 96.6136C261.088 97.3286 261.287 98.1477 261.287 99.071C261.287 100.07 261.05 100.955 260.577 101.727C260.108 102.499 259.45 103.105 258.602 103.545C257.759 103.981 256.772 104.199 255.641 104.199ZM271.363 101.273V100.506C271.363 99.9091 271.491 99.3575 271.747 98.8509C272.007 98.3442 272.384 97.937 272.876 97.6293C273.368 97.3215 273.97 97.1676 274.68 97.1676C275.404 97.1676 276.013 97.3215 276.505 97.6293C277.002 97.9323 277.377 98.3371 277.627 98.8438C277.883 99.3456 278.011 99.8996 278.011 100.506V101.273C278.011 101.869 277.883 102.421 277.627 102.928C277.372 103.434 276.995 103.841 276.498 104.149C276.001 104.457 275.395 104.611 274.68 104.611C273.96 104.611 273.354 104.457 272.862 104.149C272.369 103.841 271.995 103.434 271.74 102.928C271.489 102.421 271.363 101.869 271.363 101.273ZM273.629 100.506V101.273C273.629 101.576 273.702 101.867 273.849 102.146C274.001 102.426 274.278 102.565 274.68 102.565C275.092 102.565 275.369 102.43 275.511 102.161C275.653 101.886 275.724 101.59 275.724 101.273V100.506C275.724 100.188 275.655 99.8902 275.518 99.6108C275.386 99.3267 275.106 99.1847 274.68 99.1847C274.282 99.1847 274.008 99.3267 273.856 99.6108C273.705 99.8902 273.629 100.188 273.629 100.506ZM263.821 92.9489V92.1818C263.821 91.5758 263.951 91.0218 264.211 90.5199C264.476 90.0133 264.855 89.6084 265.348 89.3054C265.84 88.9976 266.437 88.8438 267.137 88.8438C267.862 88.8438 268.47 88.9976 268.963 89.3054C269.46 89.6084 269.836 90.0133 270.092 90.5199C270.348 91.0218 270.475 91.5758 270.475 92.1818V92.9489C270.475 93.5549 270.345 94.1089 270.085 94.6108C269.829 95.1127 269.453 95.5128 268.956 95.8111C268.458 96.1094 267.852 96.2585 267.137 96.2585C266.422 96.2585 265.816 96.107 265.319 95.804C264.827 95.5009 264.453 95.0985 264.197 94.5966C263.946 94.0947 263.821 93.5455 263.821 92.9489ZM266.108 92.1818V92.9489C266.108 93.2661 266.181 93.562 266.328 93.8366C266.479 94.1065 266.749 94.2415 267.137 94.2415C267.554 94.2415 267.831 94.1065 267.968 93.8366C268.11 93.562 268.181 93.2661 268.181 92.9489V92.1818C268.181 91.8646 268.115 91.5663 267.983 91.2869C267.85 91.0028 267.568 90.8608 267.137 90.8608C266.74 90.8608 266.467 91.0052 266.321 91.294C266.179 91.5829 266.108 91.8788 266.108 92.1818ZM264.893 104L274.893 89.4545H276.832L266.832 104H264.893Z" fill="white"/>
</g>
<g id="Airdrop_4">
<path id="Ellipse 6" d="M342.296 207.994C347.793 208.53 351.847 213.427 350.968 218.88C349.898 225.517 348.41 232.079 346.512 238.528C344.953 243.826 339.183 246.496 333.993 244.608L277.843 224.182C272.653 222.294 270.054 216.523 271.275 211.137V211.137C272.497 205.751 277.33 201.666 282.827 202.201L342.296 207.994Z" fill="#BB87E3"/>
<path id="4%" d="M303.895 222.585V219.844L309.854 210.455H312.29V214.176H310.876L307.389 219.702V219.815H316.018V222.585H303.895ZM310.919 225V221.747L310.99 220.547V210.455H314.278V225H310.919ZM326.008 222.273V221.506C326.008 220.909 326.136 220.357 326.391 219.851C326.652 219.344 327.028 218.937 327.521 218.629C328.013 218.321 328.614 218.168 329.325 218.168C330.049 218.168 330.657 218.321 331.15 218.629C331.647 218.932 332.021 219.337 332.272 219.844C332.528 220.346 332.656 220.9 332.656 221.506V222.273C332.656 222.869 332.528 223.421 332.272 223.928C332.016 224.434 331.64 224.841 331.143 225.149C330.646 225.457 330.04 225.611 329.325 225.611C328.605 225.611 327.999 225.457 327.506 225.149C327.014 224.841 326.64 224.434 326.384 223.928C326.133 223.421 326.008 222.869 326.008 222.273ZM328.273 221.506V222.273C328.273 222.576 328.347 222.867 328.494 223.146C328.645 223.426 328.922 223.565 329.325 223.565C329.737 223.565 330.013 223.43 330.156 223.161C330.298 222.886 330.369 222.59 330.369 222.273V221.506C330.369 221.188 330.3 220.89 330.163 220.611C330.03 220.327 329.751 220.185 329.325 220.185C328.927 220.185 328.652 220.327 328.501 220.611C328.349 220.89 328.273 221.188 328.273 221.506ZM318.465 213.949V213.182C318.465 212.576 318.595 212.022 318.856 211.52C319.121 211.013 319.5 210.608 319.992 210.305C320.485 209.998 321.081 209.844 321.782 209.844C322.506 209.844 323.115 209.998 323.607 210.305C324.104 210.608 324.481 211.013 324.737 211.52C324.992 212.022 325.12 212.576 325.12 213.182V213.949C325.12 214.555 324.99 215.109 324.729 215.611C324.474 216.113 324.097 216.513 323.6 216.811C323.103 217.109 322.497 217.259 321.782 217.259C321.067 217.259 320.461 217.107 319.964 216.804C319.471 216.501 319.097 216.098 318.842 215.597C318.591 215.095 318.465 214.545 318.465 213.949ZM320.752 213.182V213.949C320.752 214.266 320.826 214.562 320.972 214.837C321.124 215.107 321.394 215.241 321.782 215.241C322.199 215.241 322.476 215.107 322.613 214.837C322.755 214.562 322.826 214.266 322.826 213.949V213.182C322.826 212.865 322.76 212.566 322.627 212.287C322.495 212.003 322.213 211.861 321.782 211.861C321.384 211.861 321.112 212.005 320.965 212.294C320.823 212.583 320.752 212.879 320.752 213.182ZM319.538 225L329.538 210.455H331.477L321.477 225H319.538Z" fill="white"/>
</g>
<g id="Promotion_5">
<path id="Ellipse 7" d="M332.661 248.131C337.801 250.149 340.362 255.969 338.025 260.973C333.777 270.074 328.678 278.753 322.797 286.895C319.563 291.372 313.233 291.968 308.968 288.46L262.819 250.508C258.554 247 258 240.726 260.947 236.055C261.846 234.63 262.7 233.177 263.507 231.698C266.152 226.85 271.902 224.279 277.043 226.297L332.661 248.131Z" fill="#4A81C1"/>
<path id="5%_3" d="M294.641 263.199C293.58 263.199 292.638 263.007 291.814 262.624C290.99 262.24 290.339 261.712 289.861 261.04C289.387 260.367 289.141 259.596 289.122 258.724H292.531C292.56 259.259 292.777 259.69 293.185 260.017C293.592 260.339 294.077 260.5 294.641 260.5C295.081 260.5 295.472 260.403 295.812 260.209C296.153 260.015 296.421 259.742 296.615 259.392C296.809 259.037 296.904 258.63 296.899 258.17C296.904 257.702 296.807 257.292 296.608 256.942C296.414 256.591 296.144 256.319 295.798 256.125C295.457 255.926 295.064 255.827 294.619 255.827C294.198 255.822 293.798 255.914 293.419 256.104C293.045 256.293 292.761 256.551 292.567 256.878L289.463 256.295L290.095 248.455H299.428V251.288H292.986L292.652 254.719H292.737C292.979 254.316 293.367 253.985 293.902 253.724C294.442 253.459 295.055 253.327 295.741 253.327C296.613 253.327 297.389 253.53 298.071 253.938C298.758 254.34 299.297 254.899 299.69 255.614C300.088 256.329 300.287 257.148 300.287 258.071C300.287 259.07 300.05 259.955 299.577 260.727C299.108 261.499 298.45 262.105 297.602 262.545C296.759 262.981 295.772 263.199 294.641 263.199ZM310.363 260.273V259.506C310.363 258.909 310.491 258.357 310.747 257.851C311.007 257.344 311.384 256.937 311.876 256.629C312.368 256.321 312.97 256.168 313.68 256.168C314.404 256.168 315.013 256.321 315.505 256.629C316.002 256.932 316.377 257.337 316.627 257.844C316.883 258.346 317.011 258.9 317.011 259.506V260.273C317.011 260.869 316.883 261.421 316.627 261.928C316.372 262.434 315.995 262.841 315.498 263.149C315.001 263.457 314.395 263.611 313.68 263.611C312.96 263.611 312.354 263.457 311.862 263.149C311.369 262.841 310.995 262.434 310.74 261.928C310.489 261.421 310.363 260.869 310.363 260.273ZM312.629 259.506V260.273C312.629 260.576 312.702 260.867 312.849 261.146C313.001 261.426 313.278 261.565 313.68 261.565C314.092 261.565 314.369 261.43 314.511 261.161C314.653 260.886 314.724 260.59 314.724 260.273V259.506C314.724 259.188 314.655 258.89 314.518 258.611C314.386 258.327 314.106 258.185 313.68 258.185C313.282 258.185 313.008 258.327 312.856 258.611C312.705 258.89 312.629 259.188 312.629 259.506ZM302.821 251.949V251.182C302.821 250.576 302.951 250.022 303.211 249.52C303.476 249.013 303.855 248.608 304.348 248.305C304.84 247.998 305.437 247.844 306.137 247.844C306.862 247.844 307.47 247.998 307.963 248.305C308.46 248.608 308.836 249.013 309.092 249.52C309.348 250.022 309.475 250.576 309.475 251.182V251.949C309.475 252.555 309.345 253.109 309.085 253.611C308.829 254.113 308.453 254.513 307.956 254.811C307.458 255.109 306.852 255.259 306.137 255.259C305.422 255.259 304.816 255.107 304.319 254.804C303.827 254.501 303.453 254.098 303.197 253.597C302.946 253.095 302.821 252.545 302.821 251.949ZM305.108 251.182V251.949C305.108 252.266 305.181 252.562 305.328 252.837C305.479 253.107 305.749 253.241 306.137 253.241C306.554 253.241 306.831 253.107 306.968 252.837C307.11 252.562 307.181 252.266 307.181 251.949V251.182C307.181 250.865 307.115 250.566 306.983 250.287C306.85 250.003 306.568 249.861 306.137 249.861C305.74 249.861 305.467 250.005 305.321 250.294C305.179 250.583 305.108 250.879 305.108 251.182ZM303.893 263L313.893 248.455H315.832L305.832 263H303.893Z" fill="white"/>
</g>
<g id="Staking_14">
<path id="Ellipse 5" d="M299.212 87.7875C303.118 83.8823 309.476 83.8624 313.128 88.0046C325.951 102.545 336.035 119.323 342.857 137.529C349.68 155.735 353.106 175.009 352.998 194.395C352.967 199.918 348.161 204.081 342.651 203.704L283.041 199.626C277.531 199.249 273.435 194.464 273.12 188.95C272.663 180.953 271.003 173.051 268.179 165.515C265.354 157.978 261.413 150.931 256.502 144.604C253.115 140.241 253.058 133.942 256.963 130.037L299.212 87.7875Z" fill="#8982DC"/>
<path id="14%" d="M300.798 144.455V159H297.29V147.736H297.205L293.952 149.724V146.685L297.538 144.455H300.798ZM303.836 156.585V153.844L309.795 144.455H312.231V148.176H310.818L307.331 153.702V153.815H315.96V156.585H303.836ZM310.86 159V155.747L310.931 154.547V144.455H314.22V159H310.86ZM325.949 156.273V155.506C325.949 154.909 326.077 154.357 326.333 153.851C326.593 153.344 326.97 152.937 327.462 152.629C327.954 152.321 328.556 152.168 329.266 152.168C329.99 152.168 330.599 152.321 331.091 152.629C331.588 152.932 331.962 153.337 332.213 153.844C332.469 154.346 332.597 154.9 332.597 155.506V156.273C332.597 156.869 332.469 157.421 332.213 157.928C331.958 158.434 331.581 158.841 331.084 159.149C330.587 159.457 329.981 159.611 329.266 159.611C328.546 159.611 327.94 159.457 327.448 159.149C326.955 158.841 326.581 158.434 326.326 157.928C326.075 157.421 325.949 156.869 325.949 156.273ZM328.215 155.506V156.273C328.215 156.576 328.288 156.867 328.435 157.146C328.587 157.426 328.864 157.565 329.266 157.565C329.678 157.565 329.955 157.43 330.097 157.161C330.239 156.886 330.31 156.59 330.31 156.273V155.506C330.31 155.188 330.241 154.89 330.104 154.611C329.971 154.327 329.692 154.185 329.266 154.185C328.868 154.185 328.594 154.327 328.442 154.611C328.291 154.89 328.215 155.188 328.215 155.506ZM318.407 147.949V147.182C318.407 146.576 318.537 146.022 318.797 145.52C319.062 145.013 319.441 144.608 319.934 144.305C320.426 143.998 321.023 143.844 321.723 143.844C322.448 143.844 323.056 143.998 323.549 144.305C324.046 144.608 324.422 145.013 324.678 145.52C324.934 146.022 325.061 146.576 325.061 147.182V147.949C325.061 148.555 324.931 149.109 324.671 149.611C324.415 150.113 324.039 150.513 323.542 150.811C323.044 151.109 322.438 151.259 321.723 151.259C321.008 151.259 320.402 151.107 319.905 150.804C319.413 150.501 319.039 150.098 318.783 149.597C318.532 149.095 318.407 148.545 318.407 147.949ZM320.694 147.182V147.949C320.694 148.266 320.767 148.562 320.914 148.837C321.065 149.107 321.335 149.241 321.723 149.241C322.14 149.241 322.417 149.107 322.554 148.837C322.696 148.562 322.767 148.266 322.767 147.949V147.182C322.767 146.865 322.701 146.566 322.569 146.287C322.436 146.003 322.154 145.861 321.723 145.861C321.326 145.861 321.053 146.005 320.907 146.294C320.765 146.583 320.694 146.879 320.694 147.182ZM319.479 159L329.479 144.455H331.418L321.418 159H319.479Z" fill="white"/>
</g>
</g>
<defs>
<filter id="filter0_d_5_17" x="33" y="34" width="321" height="321" filterUnits="userSpaceOnUse" color-interpolation-filters="sRGB">
<feFlood flood-opacity="0" result="BackgroundImageFix"/>
<feColorMatrix in="SourceAlpha" type="matrix" values="0 0 0 0 0 0 0 0 0 0 0 0 0 0 0 0 0 0 127 0" result="hardAlpha"/>
<feOffset dy="1"/>
<feGaussianBlur stdDeviation="0.5"/>
<feComposite in2="hardAlpha" operator="out"/>
<feColorMatrix type="matrix" values="0 0 0 0 0 0 0 0 0 0 0 0 0 0 0 0 0 0 0.38 0"/>
<feBlend mode="normal" in2="BackgroundImageFix" result="effect1_dropShadow_5_17"/>
<feBlend mode="normal" in="SourceGraphic" in2="effect1_dropShadow_5_17" result="shape"/>
</filter>
</defs>
</svg>
